<?xml version="1.0" standalone="no"?>
<!DOCTYPE svg PUBLIC "-//W3C//DTD SVG 1.1//EN" "http://www.w3.org/Graphics/SVG/1.1/DTD/svg11.dtd" >
<svg xmlns="http://www.w3.org/2000/svg">
<metadata></metadata>
<defs>
<font id="volkhovregular" horiz-adv-x="1212" >
<font-face units-per-em="2048" ascent="1638" descent="-410" />
<missing-glyph horiz-adv-x="471" />
<glyph horiz-adv-x="0" />
<glyph unicode="&#xd;" horiz-adv-x="0" />
<glyph unicode=" "  horiz-adv-x="471" />
<glyph unicode="&#x09;" horiz-adv-x="471" />
<glyph unicode="&#xa0;" horiz-adv-x="471" />
<glyph unicode="!" horiz-adv-x="579" d="M152 111q0 57 41 98t98 41q56 0 97 -41q40 -40 40 -98q0 -55 -41 -98q-41 -42 -96 -42q-57 0 -98 42q-41 43 -41 98zM162 1434h258l-41 -1008h-176z" />
<glyph unicode="&#x22;" horiz-adv-x="741" d="M86 1464h217l-61 -481h-95zM440 1464h217l-61 -481h-94z" />
<glyph unicode="#" horiz-adv-x="1206" d="M94 412v131h191l73 391h-211v131h238l74 399h135l-76 -399h275l75 399h136l-78 -399h190v-131h-213l-76 -391h234v-131h-258l-76 -412h-133l76 412h-275l-78 -412h-133l78 412h-168zM418 543h276l76 391h-278z" />
<glyph unicode="$" horiz-adv-x="1222" d="M123 66v376h94l105 -313q102 -31 233 -31v549q-79 31 -154 70q-66 35 -132 87t-102 126t-36 164q0 160 117 257q115 96 307 111v129h133v-129q184 -7 346 -61v-377h-94l-98 299q-75 14 -154 16v-489q222 -85 328 -192q105 -107 110 -259q0 -188 -121 -296 q-120 -107 -317 -128v-145h-133v139q-232 1 -432 97zM352 1122q0 -72 52 -124q51 -51 151 -95v430q-94 -12 -148 -72q-55 -61 -55 -139zM688 109q207 47 207 237q0 82 -52 137q-53 56 -155 107v-481z" />
<glyph unicode="%" horiz-adv-x="1552" d="M82 1112q0 77 20 138q22 66 61 113q41 48 97 75q55 26 131 26q73 0 130 -27q54 -26 95 -76q38 -47 60 -112q20 -60 20 -137t-20 -138q-21 -64 -59 -113t-95 -76t-131 -27q-145 0 -227 100t-82 254zM264 1112q0 -274 127 -274q125 0 125 274q0 270 -125 270 q-127 0 -127 -270zM346 0l731 1464h144l-729 -1464h-146zM858 324q0 74 21 138q22 67 60 111q44 50 96 75q59 28 130 28q70 0 129 -28q56 -26 98 -75q38 -44 60 -111q21 -64 21 -138t-21 -140q-22 -68 -60 -112q-43 -49 -97 -75q-59 -28 -130 -28q-142 0 -225 101 q-82 100 -82 254zM1040 324q0 -275 125 -275q127 0 127 275q0 270 -127 270q-125 0 -125 -270z" />
<glyph unicode="&#x26;" horiz-adv-x="1568" d="M104 340q0 248 322 418q-195 212 -195 389q0 157 116 237t286 80q166 0 282 -82q117 -82 117 -229q0 -231 -315 -393l334 -332q47 102 69 234l-123 45v92h420v-92l-176 -45q-23 -175 -96 -322l207 -199l204 -49v-92h-348l-176 168q-179 -199 -450 -199q-201 0 -340 96 q-138 96 -138 275zM336 340q0 -102 65 -174q66 -74 191 -74q210 0 350 164l-424 406q-182 -145 -182 -322zM453 1149q0 -51 25 -105q24 -53 87 -120q55 -59 66 -70q78 46 128 127q50 80 50 170q0 91 -51 144t-129 53q-71 0 -124 -53q-52 -52 -52 -146z" />
<glyph unicode="'" horiz-adv-x="407" d="M86 1464h238l-62 -481h-115z" />
<glyph unicode="(" horiz-adv-x="677" d="M70 512q0 360 157 658q157 297 406 466l49 -59q-193 -187 -302 -471q-108 -282 -108 -594q0 -313 107 -596q107 -284 303 -469l-49 -59q-250 168 -406 464q-157 298 -157 660z" />
<glyph unicode=")" horiz-adv-x="677" d="M-2 -553q196 185 303 469q107 283 107 596q0 312 -108 594q-109 284 -302 471l49 59q249 -169 406 -466q157 -298 157 -658q0 -362 -157 -660q-156 -296 -406 -464z" />
<glyph unicode="*" horiz-adv-x="962" d="M90 1210l53 162l289 -135l-37 319h172l-37 -319l291 133l53 -160l-313 -69l217 -234l-137 -100l-160 276l-155 -278l-142 104l217 234z" />
<glyph unicode="+" horiz-adv-x="1110" d="M86 662v137h399v399h138v-399h403v-137h-403v-402h-138v402h-399z" />
<glyph unicode="," horiz-adv-x="485" d="M39 -287q121 127 184 283l-135 104q0 69 46 112q47 44 104 44q72 0 112 -43q41 -44 41 -127q0 -102 -92 -238q-90 -133 -184 -202z" />
<glyph unicode="-" horiz-adv-x="700" d="M127 481v158h448v-158h-448z" />
<glyph unicode="." horiz-adv-x="464" d="M94 109q0 56 41 97q40 40 98 40t98 -40t40 -97q0 -55 -41 -98q-40 -42 -97 -42t-98 42q-41 43 -41 98z" />
<glyph unicode="/" horiz-adv-x="907" d="M59 0l637 1434h156l-635 -1434h-158z" />
<glyph unicode="0" horiz-adv-x="1292" d="M104 717q0 329 147 538t396 209t396 -208q147 -209 147 -539q0 -328 -147 -538t-396 -210t-396 210t-147 538zM367 717q0 -263 73 -445t207 -182t207 182q74 184 74 445q0 260 -74 444q-73 182 -207 182t-207 -182t-73 -444z" />
<glyph unicode="1" horiz-adv-x="831" d="M51 1206l432 228h97v-1307l174 -39v-88h-660v88l236 41v1098l-246 -105z" />
<glyph unicode="2" horiz-adv-x="1099" d="M59 0v123l177 188q57 63 143 172q79 101 143 202q65 103 106 208q44 112 44 201q0 121 -61 196q-60 74 -162 74l-242 -221q-111 83 -117 219q198 102 434 102q177 0 292 -85q116 -86 116 -251q0 -120 -56 -248q-57 -131 -160 -259q-109 -135 -191 -222 q-98 -103 -203 -200h489l111 221h90l-58 -420h-895z" />
<glyph unicode="3" horiz-adv-x="1101" d="M41 53l43 101q160 -58 309 -58q161 0 256 82q96 82 96 213q0 141 -110 223t-316 82v115q162 2 258 88q95 86 95 219q0 111 -66 180q-67 70 -170 70l-229 -209q-37 23 -72 88q-36 65 -37 119q82 48 184 73q101 25 207 25q224 0 333 -92q108 -92 108 -239q0 -116 -83 -214 q-83 -99 -233 -145q193 -29 292 -132q100 -105 100 -247q0 -203 -159 -314q-160 -112 -390 -112q-226 0 -416 84z" />
<glyph unicode="4" horiz-adv-x="1161" d="M16 283v88l789 1063h100v-1008h162v-143h-162v-314h-219v314h-670zM238 426h448v598z" />
<glyph unicode="5" horiz-adv-x="1079" d="M45 55l45 97q131 -58 264 -58q166 0 270 94q105 94 105 271q0 139 -84 230t-250 91q-76 0 -194 -26l-45 26l59 654h608l86 82l82 -37l-94 -242h-565l-31 -350q101 26 211 26q118 0 210 -40q93 -40 149 -104q57 -64 85 -140q29 -78 29 -154q0 -233 -169 -369 q-170 -137 -396 -137q-230 0 -371 84z" />
<glyph unicode="6" horiz-adv-x="1163" d="M106 614q0 363 226 607q225 243 612 243l-2 -118q-242 -1 -396 -163q-153 -161 -194 -415q137 125 318 125q203 0 314 -129q112 -130 112 -326q0 -199 -123 -334t-348 -135q-251 0 -384 177q-135 179 -135 468zM338 596q0 -221 72 -368q72 -146 202 -146q103 0 166 97 q64 99 64 224q0 143 -70 236q-69 92 -194 92q-128 0 -240 -80v-55z" />
<glyph unicode="7" horiz-adv-x="972" d="M51 1014l58 420h864v-91q-202 -310 -326 -655q-126 -352 -160 -688h-245q38 296 191 648q155 357 312 587h-499l-105 -221h-90z" />
<glyph unicode="8" horiz-adv-x="1208" d="M135 346q0 224 293 404q-120 82 -188 169q-68 88 -68 207q0 160 128 249t304 89q173 0 298 -86q124 -85 124 -239q0 -193 -221 -351q132 -86 202 -181q72 -98 72 -238q0 -184 -145 -292q-146 -108 -334 -108q-184 0 -325 102q-140 101 -140 275zM342 346q0 -122 76 -191 q77 -69 180 -69q101 0 173 66q73 67 73 180q0 56 -23 105q-21 46 -76 94q-55 49 -93 74q-86 57 -117 77q-100 -74 -146 -165q-47 -92 -47 -171zM405 1157q0 -37 19 -77q18 -38 39 -63q24 -30 68 -61q48 -34 75 -51l92 -53q65 63 93 135q30 77 30 135q0 104 -63 163 q-62 58 -156 58q-79 0 -138 -50t-59 -136z" />
<glyph unicode="9" horiz-adv-x="1163" d="M70 993q0 201 123 336t348 135q251 0 384 -177q134 -178 134 -468q0 -364 -224 -606q-226 -244 -614 -244v119q245 1 399 163q152 160 193 415q-137 -125 -317 -125q-204 0 -315 128q-111 127 -111 324zM324 1028q0 -142 69 -233q70 -93 195 -93q132 0 239 78v58 q0 222 -71 367q-72 147 -203 147q-103 0 -166 -98t-63 -226z" />
<glyph unicode=":" horiz-adv-x="530" d="M127 109q0 56 41 97q40 40 98 40t98 -40q39 -39 39 -97q0 -55 -41 -98q-40 -42 -96 -42q-58 0 -98 42q-41 43 -41 98zM127 805q0 56 41 97q40 40 98 40t98 -40q39 -39 39 -97q0 -54 -41 -97q-40 -42 -96 -42q-58 0 -98 42q-41 43 -41 97z" />
<glyph unicode=";" horiz-adv-x="561" d="M82 -287q121 127 184 283l-135 104q0 69 46 112q47 44 104 44q72 0 112 -43q41 -44 41 -127q0 -102 -92 -238q-90 -133 -184 -202zM139 805q0 56 41 97q40 40 99 40q57 0 97 -40t40 -97q0 -54 -41 -97q-41 -42 -96 -42q-59 0 -99 42q-41 43 -41 97z" />
<glyph unicode="&#x3c;" horiz-adv-x="1103" d="M78 676v112l878 474v-158l-686 -373l686 -369v-157z" />
<glyph unicode="=" horiz-adv-x="1220" d="M141 494v137h940v-137h-940zM141 831v138h940v-138h-940z" />
<glyph unicode="&#x3e;" horiz-adv-x="1103" d="M150 203v158l686 372l-686 369v158l878 -471v-113z" />
<glyph unicode="?" horiz-adv-x="1003" d="M72 1366q84 45 192 72q104 26 217 26q202 0 310 -93t108 -257q0 -80 -27 -149q-28 -73 -91 -141q-64 -70 -115 -115q-48 -43 -154 -125l-31 -191h-104l-31 250q137 129 215 245t78 234q0 113 -62 174q-64 62 -167 62l-242 -191q-85 73 -96 199zM289 109q0 57 41 98t98 41 q56 0 97 -41q40 -40 40 -98q0 -55 -41 -98q-40 -42 -96 -42q-58 0 -98 42q-41 43 -41 98z" />
<glyph unicode="@" horiz-adv-x="1859" d="M109 588q0 376 259 626t650 250q338 0 549 -180t211 -461q0 -133 -64 -259q-61 -121 -160 -206q-93 -80 -211 -125q-111 -42 -215 -30q-100 15 -100 88l10 82q-144 -170 -317 -170q-83 0 -143 61q-60 62 -60 189q0 266 166 454q166 189 397 189q166 0 312 -80l-181 -699 q183 -1 310 156t127 367q0 221 -179 368q-180 148 -448 148q-298 0 -513 -218q-214 -217 -214 -552q0 -172 59 -305q61 -137 162 -220q103 -85 230 -128q129 -44 274 -44q199 0 381 76l41 -69q-206 -121 -475 -121q-161 0 -313 50q-148 49 -274 146q-124 95 -198 256 q-73 158 -73 361zM719 492q0 -75 25 -116q26 -42 73 -42q62 0 136 64t132 155l117 446q-43 15 -88 15q-161 0 -278 -165t-117 -357z" />
<glyph unicode="A" horiz-adv-x="1466" d="M-20 0v94l192 45l498 1305h147l467 -1307l189 -43v-94h-603v94l152 35l-98 277h-502l-107 -271l181 -41v-94h-516zM467 526h412l-201 559z" />
<glyph unicode="B" horiz-adv-x="1388" d="M90 0v94l189 45v1155l-189 45v95h588q500 0 500 -349q0 -111 -67 -196q-65 -83 -181 -121v-4q167 -30 259 -125q91 -94 91 -236q0 -183 -137 -293t-371 -110h-682zM530 125h179q149 0 231 72t82 206q0 125 -85 201t-239 76h-168v-555zM530 809h117q119 0 196 69t77 189 q0 122 -77 182q-76 60 -208 60h-105v-500z" />
<glyph unicode="C" horiz-adv-x="1372" d="M104 717q0 363 186 555t556 192q239 0 399 -71v-387h-94l-94 303q-79 18 -185 18q-510 0 -510 -610q0 -611 469 -611q63 0 125 5q56 5 101 12l119 323h94l-15 -387q-25 -14 -81 -32t-116 -29q-83 -16 -129 -21q-70 -8 -122 -8q-345 0 -524 193t-179 555z" />
<glyph unicode="D" horiz-adv-x="1531" d="M90 0v94l189 45v1155l-189 45v95h533q375 0 592 -181t217 -536q0 -321 -224 -519t-585 -198h-533zM530 137h82q272 0 417 137t145 443q0 282 -149 431q-148 148 -413 148h-82v-1159z" />
<glyph unicode="E" horiz-adv-x="1310" d="M90 0v94l189 45v1155l-189 45v95h1067v-420h-96l-88 282l-443 17v-527l443 39v-182l-443 37v-559l482 16l104 305h96l-16 -442h-1106z" />
<glyph unicode="F" horiz-adv-x="1206" d="M90 0v94l189 45v1155l-189 45v95h1057v-420h-94l-86 282l-437 17v-525l443 37v-182l-443 35v-539l230 -45v-94h-670z" />
<glyph unicode="G" horiz-adv-x="1484" d="M104 717q0 357 200 552q199 195 575 195q238 0 397 -69v-389h-94l-97 305q-99 16 -172 16q-262 0 -406 -156q-145 -157 -145 -454q0 -300 132 -456q131 -155 378 -155q90 0 162 15v428l-233 43v72h637v-72l-152 -43v-479q-190 -101 -440 -101q-360 0 -551 195 q-191 196 -191 553z" />
<glyph unicode="H" horiz-adv-x="1691" d="M90 0v94l189 45v1155l-189 45v95h629v-95l-189 -45v-501h633v501l-188 45v95h629v-95l-189 -45v-1155l189 -45v-94h-629v94l188 45v516h-633v-516l189 -45v-94h-629z" />
<glyph unicode="I" horiz-adv-x="806" d="M90 0v94l191 45v1155l-191 45v95h629v-95l-189 -45v-1155l189 -45v-94h-629z" />
<glyph unicode="J" horiz-adv-x="768" d="M16 -229q246 178 246 536v987l-188 45v95h628v-95l-188 -45v-987q0 -211 -132 -382t-294 -240z" />
<glyph unicode="K" horiz-adv-x="1478" d="M90 0v94l189 35v1176l-189 34v95h629v-95l-189 -34v-1176l189 -35v-94h-629zM575 735l506 570l-147 34v95h491v-95l-182 -45l-440 -489l481 -645l195 -66v-94h-396z" />
<glyph unicode="L" horiz-adv-x="1263" d="M90 0v94l189 45v1155l-189 45v95h629v-95l-189 -45v-1157h482l110 305h95l-21 -442h-1106z" />
<glyph unicode="M" horiz-adv-x="2066" d="M61 0v94l195 47l66 1155l-181 43l2 95h439l460 -1069l465 1069h422v-95l-184 -43l70 -1157l196 -45v-94h-622v94l180 43l-56 971l-485 -1118h-90l-492 1120l-51 -973l183 -43v-94h-517z" />
<glyph unicode="N" horiz-adv-x="1681" d="M90 0v94l189 45v1155l-189 45v95h332l854 -1014v874l-189 45v95h527v-95l-189 -45v-1294h-122l-881 1038v-899l188 -45v-94h-520z" />
<glyph unicode="O" horiz-adv-x="1576" d="M104 723q0 153 41 288q40 132 125 235q84 102 214 160q129 58 307 58q166 0 292 -55q127 -55 215 -154q90 -100 134 -235q45 -137 45 -301q0 -165 -44 -303t-131 -237q-85 -97 -216 -154q-129 -56 -295 -56q-179 0 -309 60q-132 61 -214 160q-83 101 -124 239 q-40 135 -40 295zM367 717q0 -295 113 -460q114 -167 311 -167q196 0 310 167q113 165 113 460q0 277 -107 451q-108 175 -316 175q-209 0 -317 -175q-107 -174 -107 -451z" />
<glyph unicode="P" horiz-adv-x="1296" d="M90 0v94l189 45v1155l-189 45v95h545q602 0 602 -449q0 -227 -157 -339q-156 -111 -412 -111q-75 0 -138 10v-406l250 -45v-94h-690zM530 672q29 -4 62 -6q40 -2 59 -2q73 0 130 20q63 22 105 61q44 41 68 101q25 63 25 139q0 160 -95 240t-249 80h-105v-633z" />
<glyph unicode="Q" horiz-adv-x="1568" d="M104 717q0 328 172 537q172 210 510 210t509 -210t171 -537q0 -156 -41 -291q-41 -134 -120 -237q-78 -101 -213 -162q-32 -13 -64 -23q74 -93 203 -139q145 -53 321 -53h50l-25 -88q-107 -12 -143 -13q-66 -2 -86 -2q-116 1 -224 23q-105 21 -196 88q-84 61 -135 149h-7 q-173 0 -306 59t-213 161q-82 105 -122 237q-41 135 -41 291zM367 717q0 -294 113 -462q114 -169 311 -169q221 0 317 169t96 462q0 282 -107 453q-108 173 -306 173q-209 0 -317 -175q-107 -174 -107 -451z" />
<glyph unicode="R" horiz-adv-x="1425" d="M90 0v94l189 45v1155l-189 45v95h580q110 0 202 -18q98 -19 180 -59q87 -42 137 -125t50 -200q0 -272 -283 -368l285 -527l180 -45v-92h-372l-338 633h-181v-494l189 -45v-94h-629zM530 756h119q150 0 241 73t91 207q0 131 -90 200t-242 69h-119v-549z" />
<glyph unicode="S" horiz-adv-x="1204" d="M125 1106q0 170 135 264q134 94 350 94q227 0 420 -47l-10 -393h-92l-103 295q-83 16 -174 16q-142 0 -222 -55q-81 -56 -81 -154q0 -82 73 -140q67 -53 253 -132q100 -40 159 -73q64 -35 134 -89q71 -55 107 -133t36 -174q0 -204 -152 -315q-141 -101 -350 -101h-4 q-51 0 -189 11q-136 11 -286 55v403h94l105 -307q86 -27 200 -27q159 0 258 57t99 177q0 93 -88 160q-89 68 -258 141q-234 101 -324 195t-90 272z" />
<glyph unicode="T" horiz-adv-x="1339" d="M61 999v435h1219v-435h-96l-92 297l-295 17v-1174l188 -45v-94h-629v94l189 45v1174l-297 -17l-90 -297h-97z" />
<glyph unicode="U" horiz-adv-x="1615" d="M45 1339v95h629v-95l-189 -45v-757q0 -206 102 -308t273 -102t275 103t104 307v757l-190 45v95h524v-95l-189 -45v-757q0 -135 -42 -242q-43 -108 -117 -178q-77 -73 -182 -110q-106 -38 -230 -38q-128 0 -233 37q-107 38 -184 110q-76 71 -120 178q-43 104 -43 243v757z " />
<glyph unicode="V" horiz-adv-x="1435" d="M-14 1339v95h620v-95l-168 -34l348 -983l328 972l-162 45v95h494v-95l-189 -45l-450 -1308h-162l-477 1308z" />
<glyph unicode="W" horiz-adv-x="2097" d="M-23 1339v95h615v-95l-172 -36l293 -930l295 1061h174l342 -1057l241 917l-166 45v95h496v-95l-188 -45l-348 -1308h-162l-357 1069l-301 -1069h-157l-426 1310z" />
<glyph unicode="X" horiz-adv-x="1497" d="M23 1339v95h595v-95l-131 -30l310 -439l311 428l-141 41v95h493v-95l-188 -45l-393 -538l440 -623l168 -39v-94h-596v94l131 27l-326 465l-315 -451l143 -41v-94h-495v94l188 45l404 557l-416 596z" />
<glyph unicode="Y" horiz-adv-x="1421" d="M-18 1339v95h589v-95l-133 -26l338 -498l303 483l-151 41v95h502v-95l-189 -45l-397 -632v-523l188 -45v-94h-629v94l189 45v516l-445 643z" />
<glyph unicode="Z" horiz-adv-x="1314" d="M104 0v127l801 1186l-610 -17l-88 -292h-94v430h1089v-127l-794 -1180l610 10l100 305h94l-12 -442h-1096z" />
<glyph unicode="[" horiz-adv-x="679" d="M176 -262v1818h467v-112h-233v-1594h233v-112h-467z" />
<glyph unicode="\" horiz-adv-x="907" d="M57 1434l635 -1434h158l-637 1434h-156z" />
<glyph unicode="]" horiz-adv-x="679" d="M39 -150h233v1594h-233v112h467v-1818h-467v112z" />
<glyph unicode="^" horiz-adv-x="1173" d="M104 547l431 917h102l432 -917h-154l-331 729l-328 -729h-152z" />
<glyph unicode="_" horiz-adv-x="1544" d="M303 -160h940v-131h-940v131z" />
<glyph unicode="`" horiz-adv-x="450" d="M-90 1466q72 88 192 109l207 -365l-86 -59z" />
<glyph unicode="a" horiz-adv-x="1128" d="M72 254q0 354 628 354v72q0 178 -50 226t-156 48l-240 -204q-48 29 -83 87q-35 57 -36 119q88 48 189 73q104 26 202 26q420 0 420 -353v-569h160v-67q-46 -45 -105 -71q-58 -26 -112 -26q-121 0 -178 105q-137 -105 -310 -105q-135 0 -232 72t-97 213zM330 262 q0 -74 50 -112q49 -37 128 -37q112 0 192 69v322q-183 0 -277 -67q-93 -66 -93 -175z" />
<glyph unicode="b" d="M-23 1473v88l328 77h90v-680q135 97 291 97q190 0 315 -131t125 -373q0 -267 -171 -424q-172 -158 -420 -158q-207 0 -383 105v1399h-175zM395 98q53 -14 121 -14q158 0 257 118q99 119 99 341q0 179 -77 268q-78 90 -201 90q-87 0 -199 -53v-750z" />
<glyph unicode="c" horiz-adv-x="1001" d="M88 508q0 243 149 395t359 152q182 0 328 -86q-1 -69 -41 -128q-39 -58 -88 -85l-197 186h-12q-104 -18 -176 -132t-72 -298q0 -211 97 -309q97 -99 257 -99q123 0 230 58l34 -101q-173 -92 -350 -92q-220 0 -369 143t-149 396z" />
<glyph unicode="d" horiz-adv-x="1261" d="M88 475q0 276 170 428t412 152q82 0 149 -19v437h-174v88l328 77h92v-1505h160v-67l-33 -27q-21 -16 -77 -43q-57 -27 -109 -27q-21 0 -44 5q-14 3 -38 14q-17 8 -31 19q-16 13 -24 22q-12 14 -18 22q-2 3 -13 21q-1 1 -5 7.5t-6 10.5l-4 8q-123 -129 -303 -129 q-178 0 -305 130t-127 376zM340 483q0 -177 79 -268q80 -92 187 -92q115 0 213 76v723q-60 20 -131 20q-156 0 -252 -117t-96 -342z" />
<glyph unicode="e" horiz-adv-x="1095" d="M86 524q0 225 129 378t356 153q118 0 208 -44q89 -44 142 -122q52 -77 76 -174q25 -100 25 -209h-692q15 -170 112 -286q99 -118 269 -118q103 0 235 48l35 -97q-191 -84 -363 -84q-248 0 -390 162q-142 161 -142 393zM330 606l438 33q-6 123 -57 213t-146 90 q-103 0 -167 -96q-63 -94 -68 -240z" />
<glyph unicode="f" horiz-adv-x="849" d="M66 0v88l174 41v784h-172v97l172 12v154q0 493 397 493q91 0 177 -17q95 -19 138 -34l47 -16q-2 -71 -37 -123q-36 -52 -88 -80l-200 157q-86 0 -138 -80q-53 -82 -53 -300v-138l312 23v-148h-312v-784l273 -41v-88h-690z" />
<glyph unicode="g" horiz-adv-x="1247" d="M37 -311q0 176 211 278q-62 33 -107 87q-46 55 -53 120l238 207q-99 45 -153 125t-54 178q0 148 133 251t338 103q182 0 311 -84l318 121q24 -49 24 -108q0 -47 -8 -84h-248q78 -90 78 -199q0 -151 -128 -253q-126 -101 -347 -101q-76 0 -144 12l-118 -139q31 -47 91 -67 q58 -19 202 -19h133q186 0 294 -78q107 -77 107 -234q0 -155 -165 -274q-166 -119 -441 -119q-512 0 -512 277zM287 -276q0 -100 78 -150q77 -49 204 -49q183 0 289 65q109 67 109 160q0 82 -62 120t-207 38h-333q-78 -92 -78 -184zM354 684q0 -111 60 -177q61 -67 176 -67 q112 0 176 67q63 66 63 177t-61 179q-62 69 -178 69q-112 0 -174 -69q-62 -70 -62 -179z" />
<glyph unicode="h" horiz-adv-x="1333" d="M43 0v88l174 41v1344h-174v88l328 77h92v-712q156 129 330 129q159 0 251 -90q93 -91 93 -232v-604l174 -41v-88h-551v88l133 41v567q0 209 -178 209q-122 0 -252 -94v-682l133 -41v-88h-553z" />
<glyph unicode="i" horiz-adv-x="706" d="M74 0v88l174 41v729h-174v88l327 78h91v-895l174 -41v-88h-592zM223 1335q0 64 44 108t108 44t107 -43q44 -44 44 -109q0 -63 -44 -107t-107 -44q-64 0 -108 44t-44 107z" />
<glyph unicode="j" horiz-adv-x="618" d="M-31 -532q248 174 248 532v858h-174v88l328 78h90v-1024q0 -108 -36 -207q-35 -96 -96 -180q-56 -77 -138 -143q-79 -64 -156 -97zM193 1335q0 64 44 108t107 44q65 0 108 -43q44 -44 44 -109q0 -63 -44 -107t-108 -44q-63 0 -107 44t-44 107z" />
<glyph unicode="k" horiz-adv-x="1259" d="M43 0v88l174 41v1344h-174v88l328 77h92v-1509l133 -41v-88h-553zM498 494l374 407l-137 35v88h463v-88l-180 -41l-285 -311l338 -457l168 -39v-88h-381z" />
<glyph unicode="l" horiz-adv-x="677" d="M43 0v88l174 41v1344h-174v88l328 77h92v-1509l174 -41v-88h-594z" />
<glyph unicode="m" horiz-adv-x="2017" d="M74 0v88l174 41v729h-174v88l327 78h91v-92q158 123 323 123q211 0 299 -156q180 156 367 156q157 0 249 -90q91 -90 91 -232v-604l174 -41v-88h-551v88l133 41v578q0 97 -46 147q-47 51 -130 51q-122 0 -252 -94q8 -53 8 -78v-604l133 -41v-88h-512v88l133 41v578 q0 97 -46 147q-47 51 -130 51q-113 0 -243 -86v-690l133 -41v-88h-551z" />
<glyph unicode="n" horiz-adv-x="1363" d="M74 0v88l174 41v729h-174v88l327 78h93v-98q156 129 329 129q161 0 252 -90q92 -90 92 -232v-604l174 -41v-88h-550v88l133 41v567q0 209 -179 209q-121 0 -251 -94v-682l133 -41v-88h-553z" />
<glyph unicode="o" d="M86 514q0 236 148 388q148 153 374 153t373 -153t147 -388q0 -238 -147 -391q-148 -154 -373 -154t-374 154q-148 152 -148 391zM344 514q0 -194 69 -313t195 -119q127 0 196 120q68 118 68 312q0 196 -68 311q-69 117 -196 117q-126 0 -195 -117t-69 -311z" />
<glyph unicode="p" horiz-adv-x="1280" d="M43 -526l174 41v1343h-174v88l328 78h92v-94q125 125 307 125q174 0 298 -129q124 -128 124 -375q0 -276 -170 -429t-412 -153q-82 0 -147 17v-471l215 -41v-88h-635v88zM463 102q59 -20 129 -20q154 0 250 119t96 342q0 172 -75 259t-191 87q-114 0 -209 -72v-715z" />
<glyph unicode="q" d="M88 475q0 276 174 428q175 152 418 152q214 0 383 -105v-1435l174 -41v-88h-635v88l215 41v571q-111 -117 -297 -117q-176 0 -304 129q-128 130 -128 377zM340 483q0 -170 80 -259t198 -89q106 0 199 64v727q-64 16 -119 16q-164 0 -261 -118t-97 -341z" />
<glyph unicode="r" horiz-adv-x="923" d="M74 0v88l174 41v729h-174v88l327 78h91v-127q167 158 385 158q12 -39 12 -86q0 -72 -19 -135l-260 22q-56 -26 -118 -70v-657l215 -41v-88h-633z" />
<glyph unicode="s" horiz-adv-x="978" d="M100 16v293h95l77 -215q72 -12 160 -12q132 0 185 34q55 35 55 115q0 64 -60 106q-62 43 -204 99q-137 57 -213 136t-76 200q0 138 115 210q117 73 303 73q161 0 292 -39v-279h-86l-67 193q-58 16 -139 16q-112 0 -155 -34q-44 -35 -44 -101q0 -39 29 -70q30 -32 64 -50 t116 -54q187 -78 267 -157q81 -80 81 -204q0 -149 -121 -228t-315 -79q-191 0 -359 47z" />
<glyph unicode="t" horiz-adv-x="768" d="M72 901v62l290 247h62v-198l295 12v-123h-295v-627q0 -182 145 -182q64 0 148 37l35 -94q-128 -66 -263 -66q-146 0 -228 71q-81 71 -81 245v616h-108z" />
<glyph unicode="u" horiz-adv-x="1323" d="M27 936v88h417v-707q0 -204 177 -204q140 0 262 104v678l-133 41v88h376v-891h160v-67q-49 -43 -109 -70t-120 -27q-47 0 -83 18q-37 18 -54 44q-23 35 -27 44q-9 22 -10 29q-162 -135 -348 -135q-164 0 -249 88t-85 234v604z" />
<glyph unicode="v" horiz-adv-x="1175" d="M4 936v88h545v-88l-146 -33l254 -600l238 594l-143 39v88h424v-88l-164 -45l-359 -905h-123l-389 911z" />
<glyph unicode="w" horiz-adv-x="1679" d="M6 936v88h529v-88l-138 -35l201 -559l231 682h146l237 -672l187 543l-168 41v88h444v-88l-157 -41l-304 -909h-131l-247 696l-236 -696h-129l-336 913z" />
<glyph unicode="x" horiz-adv-x="1284" d="M33 0v88l166 37l319 381l-303 391l-168 39v88h574v-88l-127 -25l200 -262l203 252l-141 35v88h452v-88l-168 -41l-278 -334l336 -434l172 -39v-88h-574v88l131 21l-239 307l-246 -295l133 -33v-88h-442z" />
<glyph unicode="y" horiz-adv-x="1228" d="M2 936v88h559v-88l-158 -31l291 -649l246 639l-164 41v88h453v-88l-162 -43l-580 -1505q-93 0 -138 26q-46 27 -70 66l292 465l-430 952z" />
<glyph unicode="z" horiz-adv-x="1042" d="M80 0v102l571 811h-370l-99 -206h-73l22 317h817v-100l-571 -811h383l106 227h80l-20 -340h-846z" />
<glyph unicode="{" horiz-adv-x="772" d="M23 600v96q113 6 178 54q63 46 63 161v353q0 140 75 217q74 75 220 75h176v-98h-61q-87 0 -128 -53q-40 -52 -40 -162v-340q0 -215 -227 -252v-2q227 -39 227 -254v-344q0 -215 168 -215h61v-98h-176q-141 0 -218 80t-77 215v350q0 120 -62 166q-63 47 -179 51z" />
<glyph unicode="|" horiz-adv-x="479" d="M174 -492v2048h133v-2048h-133z" />
<glyph unicode="}" horiz-adv-x="770" d="M39 -164h61q90 0 129 53q39 52 39 162v344q0 215 228 254v2q-228 37 -228 252v340q0 110 -39 162q-39 53 -129 53h-61v98h176q146 0 220 -75q75 -77 75 -217v-353q0 -115 63 -161q65 -48 179 -54v-96q-117 -4 -180 -51q-62 -46 -62 -166v-350q0 -130 -95 -213 q-94 -82 -241 -82h-135v98z" />
<glyph unicode="~" horiz-adv-x="1122" d="M100 578q37 331 267 331q56 0 116 -32q61 -33 107 -71t98 -71t94 -33q98 0 125 207l129 -24q-40 -334 -264 -334q-67 0 -145 51l-148 105q-69 51 -121 51q-56 0 -87 -48t-42 -159z" />
<glyph unicode="&#xa1;" horiz-adv-x="544" d="M137 915q0 -57 41 -98t98 -41t98 41q40 40 40 98q0 55 -41 98q-41 42 -97 42q-58 0 -98 -42q-41 -43 -41 -98zM147 -407h259l-41 1007h-177z" />
<glyph unicode="&#xa2;" horiz-adv-x="1046" d="M98 512q0 229 117 370q116 140 311 167v278h133v-274q160 -8 295 -84q0 -56 -34 -120q-35 -65 -84 -95l-177 186v-838q140 -2 273 37l24 -100q-153 -63 -297 -70v-256h-133v262q-190 28 -309 170t-119 367zM348 512q0 -283 178 -373v774q-178 -82 -178 -401z" />
<glyph unicode="&#xa3;" horiz-adv-x="1142" d="M100 0v113q295 217 295 434q0 57 -28 135h-250v96l200 13q-2 4 -65 122q-10 17 -42 95t-32 147q0 160 120 235q118 74 298 74q239 0 434 -102q-5 -62 -37 -124t-82 -95l-237 221q-118 0 -177 -69q-59 -70 -59 -179q0 -22 5 -52q2 -11 6 -28t5 -20q4 -20 19 -54 q18 -40 21 -49q48 -102 49 -104l303 20l-23 -147h-235q18 -62 18 -121q0 -182 -217 -362h461l108 221h91l-58 -420h-891z" />
<glyph unicode="&#xa4;" horiz-adv-x="1245" d="M131 1118l111 111l137 -139q115 75 246 75q125 0 243 -78l140 140l108 -111l-137 -137q78 -123 78 -244q0 -127 -78 -246l137 -137l-108 -108l-138 135q-113 -76 -245 -76q-134 0 -246 76l-135 -137l-111 110l137 137q-77 113 -77 246q0 128 75 244zM354 735 q0 -112 79 -191t192 -79q111 0 190 79q80 80 80 191q0 110 -80 190q-79 79 -190 79q-113 0 -192 -79t-79 -190z" />
<glyph unicode="&#xa5;" horiz-adv-x="1574" d="M63 1339v95h590v-95l-133 -26l338 -498l303 483l-151 41v95h501v-95l-188 -45l-334 -528l291 14l-20 -145h-334v-111l354 21l-20 -150h-334v-256l188 -45v-94h-629v94l189 45v256h-348v97l348 20v123h-348v94l286 16l-383 553z" />
<glyph unicode="&#xa6;" horiz-adv-x="491" d="M180 328h133v-820h-133v820zM180 737v819h133v-819h-133z" />
<glyph unicode="&#xa7;" horiz-adv-x="1091" d="M127 735q0 154 166 242q-156 105 -156 276q0 140 117 221q116 80 293 80q188 0 342 -53v-321h-84l-84 249q-76 15 -131 15q-112 0 -178 -45t-66 -119q0 -84 61 -134q62 -51 179 -97q40 -16 114 -49q51 -23 104 -56q61 -38 95 -75q35 -38 60 -94q26 -58 26 -122 q0 -157 -139 -256q127 -102 127 -250q0 -151 -128 -234t-323 -83q-197 0 -360 82v319h82l88 -260q78 -24 143 -24q273 0 273 186q0 74 -61 124q-63 52 -193 103q-172 67 -270 155q-97 87 -97 220zM301 762q0 -42 20 -77q19 -34 63 -61q47 -29 79 -43q51 -22 100 -40 q119 -45 180 -78q52 58 52 147q0 88 -68 144q-66 55 -213 112q-34 14 -64 27t-43 19t-14 6q-92 -57 -92 -156z" />
<glyph unicode="&#xa8;" horiz-adv-x="817" d="M66 1366q0 56 38 94q39 39 97 39q55 0 94 -39t39 -94q0 -57 -39 -96t-94 -39q-59 0 -97 39q-38 37 -38 96zM475 1366q0 55 39 94t96 39q56 0 95 -39q38 -38 38 -94q0 -58 -38 -96q-39 -39 -95 -39q-58 0 -96 39q-39 38 -39 96z" />
<glyph unicode="&#xa9;" horiz-adv-x="1699" d="M98 731q0 157 60 293q62 141 161 240t240 161q137 60 293 60q152 0 291 -61q137 -60 239 -162q101 -101 162 -240q60 -137 60 -291q0 -153 -60 -290t-161 -238q-104 -104 -238 -163q-136 -60 -293 -60q-159 0 -293 59q-139 61 -240 162t-161 238t-60 292zM221 731 q0 -133 49 -246t136 -200q85 -85 200 -135t246 -50q127 0 244 51q113 49 200 136q89 89 137 200q50 115 50 244q0 130 -50 247q-49 114 -137 202q-85 85 -200 135q-113 49 -244 49q-133 0 -246 -49q-115 -50 -200 -135q-86 -86 -136 -202q-49 -114 -49 -247zM446 731 q0 216 112 333q111 116 335 116q129 0 231 -47v-228h-71l-54 172q-30 4 -53 6q-30 2 -39 2q-291 0 -291 -354q0 -352 287 -352q31 0 43 1q18 2 33 3l92 186h68l-31 -227q-112 -59 -236 -59q-209 0 -317 115q-109 117 -109 333z" />
<glyph unicode="&#xaa;" horiz-adv-x="800" d="M86 981q0 215 385 215v43q0 83 -26 123q-25 39 -95 39l-137 -137q-32 17 -58 60q-28 44 -32 83q108 57 250 57q268 0 268 -213v-340h84v-45q-50 -59 -133 -59q-75 0 -115 65q-72 -65 -182 -65q-79 0 -144 44t-65 130zM262 985q0 -37 27 -62q28 -26 73 -26q69 0 109 45 v186q-87 -2 -147 -35q-62 -35 -62 -108z" />
<glyph unicode="&#xab;" horiz-adv-x="974" d="M98 520v66l314 356h112l-186 -389l186 -389h-112zM500 524v58l241 321h101l-125 -350l125 -350h-101z" />
<glyph unicode="&#xac;" horiz-adv-x="1138" d="M113 668v133h878v-549h-133v416h-745z" />
<glyph unicode="&#xad;" horiz-adv-x="821" d="M145 649v164h533v-164h-533z" />
<glyph unicode="&#xae;" horiz-adv-x="1699" d="M98 731q0 157 60 293q62 141 161 240t240 161q137 60 293 60q152 0 291 -61q137 -60 239 -162q101 -101 162 -240q60 -137 60 -291q0 -153 -60 -290t-161 -238q-104 -104 -238 -163q-136 -60 -293 -60q-159 0 -293 59q-139 61 -240 162t-161 238t-60 292zM219 731 q0 -131 49 -244q50 -115 135 -200q87 -87 202 -136q119 -51 247 -51q129 0 246 51q111 48 199 136q85 85 135 200q49 113 49 244q0 128 -50 245q-49 116 -136 202q-88 88 -199 136q-115 50 -244 50q-131 0 -246 -50q-113 -49 -200 -136q-88 -88 -137 -201q-50 -115 -50 -246 zM465 307v58l115 26v692l-115 27v57h348q342 0 342 -237q0 -91 -53 -152q-52 -60 -146 -78l191 -311l108 -27v-55h-231l-213 379h-82v-295l115 -26v-58h-379zM729 762h72q92 0 145 44t53 124q0 78 -53 119t-145 41h-72v-328z" />
<glyph unicode="&#xaf;" horiz-adv-x="937" d="M0 1303v131h940v-131h-940z" />
<glyph unicode="&#xb0;" horiz-adv-x="753" d="M78 1247q0 123 87 211t212 88q123 0 212 -89t89 -210q0 -124 -89 -213q-88 -88 -212 -88q-125 0 -212 88t-87 213zM207 1247q0 -69 50 -121q49 -51 120 -51q70 0 121 51t51 121q0 71 -51 120q-52 50 -121 50q-70 0 -120 -50t-50 -120z" />
<glyph unicode="&#xb1;" horiz-adv-x="1138" d="M111 0v137h919v-137h-919zM111 662v137h378v399h138v-399h403v-137h-403v-402h-138v402h-378z" />
<glyph unicode="&#xb2;" horiz-adv-x="784" d="M94 584v73q46 39 90 88q47 52 116 137q71 88 113 185q44 102 44 188q0 129 -117 129l-127 -157q-40 22 -69 68q-28 45 -33 96q127 63 282 63q107 0 177 -48q71 -48 71 -155q0 -235 -358 -526h284l62 125h61l-37 -266h-559z" />
<glyph unicode="&#xb3;" horiz-adv-x="784" d="M78 616l28 74q95 -37 201 -37q95 0 153 46t58 122q0 82 -67 128t-197 46v76q101 0 160 55t59 127q0 55 -39 92q-40 39 -104 46l-121 -150q-32 22 -63 68q-29 44 -31 86q99 59 247 59q147 0 220 -55t73 -144q0 -67 -52 -122q-53 -56 -146 -84q121 -18 184 -79 q61 -60 61 -149q0 -125 -101 -190q-102 -66 -259 -66q-140 0 -264 51z" />
<glyph unicode="&#xb4;" horiz-adv-x="477" d="M37 1204l213 373q118 -21 190 -109l-315 -323z" />
<glyph unicode="&#xb6;" horiz-adv-x="1304" d="M74 1192q0 364 461 364h667v-88l-174 -41v-1656h-147v1646h-183v-1646h-147v1020q-477 -6 -477 401z" />
<glyph unicode="&#xb7;" horiz-adv-x="526" d="M106 612q0 68 50 113q49 45 108 45q60 0 109 -45t49 -113q0 -70 -49 -113q-50 -44 -109 -44q-57 0 -107 44q-51 45 -51 113z" />
<glyph unicode="&#xb8;" horiz-adv-x="700" d="M123 -354q80 -17 127 -17q58 0 93 30q34 30 34 81q0 108 -150 119l43 159h109l-23 -88q103 -5 159 -55t56 -133q0 -108 -76 -171t-214 -63q-48 0 -158 23v115z" />
<glyph unicode="&#xb9;" horiz-adv-x="628" d="M88 1311l270 143h84v-784l107 -25v-61h-434v61l147 25v649l-156 -68z" />
<glyph unicode="&#xba;" horiz-adv-x="796" d="M82 1139q0 70 21 130q20 57 63 103q42 45 100 68q60 24 133 24t133 -24t101 -68q42 -45 62 -103q22 -63 22 -130q0 -69 -22 -132q-21 -61 -62 -106q-42 -46 -101 -70q-60 -24 -133 -24t-133 24q-58 23 -100 70t-63 106q-21 60 -21 132zM258 1139q0 -117 36 -189 q36 -71 105 -71q70 0 107 71t37 189t-37 186q-38 70 -107 70q-68 0 -105 -70q-36 -69 -36 -186z" />
<glyph unicode="&#xbb;" horiz-adv-x="974" d="M135 203l125 350l-125 350h101l241 -321v-58l-241 -321h-101zM453 164l186 389l-186 389h112l314 -356v-66l-314 -356h-112z" />
<glyph unicode="&#xbc;" horiz-adv-x="1570" d="M88 1311l270 143h84v-784l107 -25v-61h-434v61l147 25v649l-156 -68zM391 0l731 1464h144l-729 -1464h-146zM801 176v70l485 624h98v-598h101v-96h-101v-174h-163v174h-420zM946 272h273v349z" />
<glyph unicode="&#xbd;" horiz-adv-x="1712" d="M88 1311l270 143h84v-784l107 -25v-61h-434v61l147 25v649l-156 -68zM393 0l731 1464h144l-729 -1464h-146zM1032 0v74q46 39 90 88q54 60 116 136q71 88 113 185q44 102 44 189q0 129 -117 129l-127 -158q-39 21 -69 69q-28 45 -33 95q127 63 282 63q107 0 177 -48 q71 -48 71 -154q0 -236 -358 -527h284l62 125h61l-37 -266h-559z" />
<glyph unicode="&#xbe;" horiz-adv-x="1677" d="M82 616l29 74q95 -37 200 -37q95 0 153 46t58 122q0 82 -67 128t-197 46v76q101 0 160 55t59 127q0 55 -39 92q-40 39 -104 46l-121 -150q-31 21 -62 68q-31 46 -32 86q99 59 248 59q146 0 219 -55t73 -144q0 -67 -52 -122q-53 -56 -146 -84q121 -18 184 -79 q62 -60 62 -149q0 -124 -102 -190t-259 -66q-140 0 -264 51zM498 0l731 1464h143l-729 -1464h-145zM905 176v70l486 624h98v-598h100v-96h-100v-174h-164v174h-420zM1051 272h272v349z" />
<glyph unicode="&#xbf;" horiz-adv-x="983" d="M94 -90q0 80 27 149q28 73 91 141q60 66 116 115t153 125l31 191h104l31 -250q-137 -129 -215 -245t-78 -234q0 -112 63 -174q64 -62 167 -62l241 191q86 -74 97 -199q-83 -45 -193 -72q-104 -26 -217 -26q-201 0 -309 93q-109 94 -109 257zM428 915q0 55 41 98 q41 42 96 42q59 0 99 -42q41 -43 41 -98q0 -57 -41 -98t-99 -41q-56 0 -97 41q-40 40 -40 98z" />
<glyph unicode="&#xc0;" horiz-adv-x="1466" d="M-20 0v94l192 45l498 1305h147l467 -1307l189 -43v-94h-603v94l152 35l-98 277h-502l-107 -271l181 -41v-94h-516zM395 1692q28 54 73 98q46 44 97 61l324 -280l-55 -66zM467 526h412l-201 559z" />
<glyph unicode="&#xc1;" horiz-adv-x="1466" d="M-20 0v94l192 45l498 1305h147l467 -1307l189 -43v-94h-603v94l152 35l-98 277h-502l-107 -271l181 -41v-94h-516zM467 526h412l-201 559zM537 1571l323 280q103 -35 170 -159l-438 -187z" />
<glyph unicode="&#xc2;" horiz-adv-x="1466" d="M-20 0v94l192 45l498 1305h147l467 -1307l189 -43v-94h-603v94l152 35l-98 277h-502l-107 -271l181 -41v-94h-516zM375 1552l276 299h172l267 -299l-103 -47l-250 189l-268 -191zM467 526h412l-201 559z" />
<glyph unicode="&#xc3;" horiz-adv-x="1466" d="M-20 0v94l192 45l498 1305h147l467 -1307l189 -43v-94h-603v94l152 35l-98 277h-502l-107 -271l181 -41v-94h-516zM365 1667q58 92 113 135q57 45 140 51q75 0 151 -58t130 -58q62 0 162 86l61 -60q-33 -71 -100 -131q-66 -59 -152 -59q-60 0 -134 58q-76 59 -148 59 q-53 0 -160 -86zM467 526h412l-201 559z" />
<glyph unicode="&#xc4;" horiz-adv-x="1466" d="M-20 0v94l192 45l498 1305h147l467 -1307l189 -43v-94h-603v94l152 35l-98 277h-502l-107 -271l181 -41v-94h-516zM385 1686q0 58 39 95q40 38 94 38q55 0 94 -39t39 -94q0 -58 -39 -97t-94 -39t-94 39t-39 97zM467 526h412l-201 559zM823 1686q0 55 39 94t96 39 q56 0 95 -39t39 -94q0 -58 -39 -97t-95 -39q-54 0 -95 39q-40 39 -40 97z" />
<glyph unicode="&#xc5;" horiz-adv-x="1468" d="M-18 0v94l192 45l467 1227q-24 14 -53 39q-66 66 -66 160q0 93 68 158t155 65q88 0 156 -65t68 -158q0 -94 -68 -160q-28 -25 -55 -39l440 -1229l189 -43v-94h-603v94l152 35l-98 277h-502l-107 -271l181 -41v-94h-516zM469 526h412l-201 559zM633 1565q0 -47 33 -80 t79 -33q47 0 80 33t33 80q0 45 -34 79q-33 33 -79 33q-45 0 -78 -33q-34 -34 -34 -79z" />
<glyph unicode="&#xc6;" horiz-adv-x="2127" d="M-23 0v94l189 45l926 1295h888v-420h-94l-88 282h-455v-512l453 41v-182l-453 39v-545h455l150 305h94l-62 -442h-1077v94l189 45v346h-506l-248 -348l182 -43v-94h-543zM678 616h414v580z" />
<glyph unicode="&#xc7;" horiz-adv-x="1372" d="M104 717q0 363 186 555t556 192q239 0 399 -71v-387h-94l-94 303q-79 18 -185 18q-510 0 -510 -610q0 -611 469 -611q63 0 125 5q56 5 101 12l119 323h94l-15 -387q-25 -14 -81 -32t-116 -29q-83 -16 -130 -21q-55 -7 -90 -8l-21 -80q103 -5 159 -55t56 -133 q0 -108 -77 -171q-75 -62 -214 -62q-51 0 -157 22v115q80 -17 127 -17q59 0 93 30t34 81q0 109 -150 119l41 155q-287 18 -446 189q-179 193 -179 555z" />
<glyph unicode="&#xc8;" horiz-adv-x="1310" d="M90 0v94l189 45v1155l-189 45v95h1067v-420h-96l-88 282l-443 17v-527l443 39v-182l-443 37v-559l482 16l104 305h96l-16 -442h-1106zM336 1692q28 54 73 98q46 44 97 61l323 -280l-55 -66z" />
<glyph unicode="&#xc9;" horiz-adv-x="1310" d="M90 0v94l189 45v1155l-189 45v95h1067v-420h-96l-88 282l-443 17v-527l443 39v-182l-443 37v-559l482 16l104 305h96l-16 -442h-1106zM537 1571l323 280q103 -35 170 -159l-438 -187z" />
<glyph unicode="&#xca;" horiz-adv-x="1310" d="M90 0v94l189 45v1155l-189 45v95h1067v-420h-96l-88 282l-443 17v-527l443 39v-182l-443 37v-559l482 16l104 305h96l-16 -442h-1106zM334 1571l276 299h172l267 -299l-103 -47l-250 188l-268 -190z" />
<glyph unicode="&#xcb;" horiz-adv-x="1310" d="M90 0v94l189 45v1155l-189 45v95h1067v-420h-96l-88 282l-443 17v-527l443 39v-182l-443 37v-559l482 16l104 305h96l-16 -442h-1106zM365 1694q0 58 38 95q40 38 95 38t94 -39t39 -94q0 -58 -39 -97q-38 -38 -94 -38q-57 0 -95 38t-38 97zM803 1694q0 55 39 94t96 39 q55 0 94 -39t39 -94q0 -58 -39 -97q-38 -38 -94 -38t-95 38q-40 39 -40 97z" />
<glyph unicode="&#xcc;" horiz-adv-x="806" d="M-2 1692q28 54 73 98q46 44 97 61l324 -280l-56 -66zM90 0v94l191 45v1155l-191 45v95h629v-95l-189 -45v-1155l189 -45v-94h-629z" />
<glyph unicode="&#xcd;" horiz-adv-x="806" d="M90 0v94l191 45v1155l-191 45v95h629v-95l-189 -45v-1155l189 -45v-94h-629zM268 1571l324 280q103 -35 170 -159l-438 -187z" />
<glyph unicode="&#xce;" horiz-adv-x="806" d="M47 1571l277 299h172l266 -299l-103 -47l-249 188l-269 -190zM90 0v94l191 45v1155l-191 45v95h629v-95l-189 -45v-1155l189 -45v-94h-629z" />
<glyph unicode="&#xcf;" horiz-adv-x="806" d="M68 1694q0 58 38 95q40 38 95 38t94 -39t39 -94q0 -58 -39 -97q-38 -38 -94 -38q-57 0 -95 38t-38 97zM90 0v94l191 45v1155l-191 45v95h629v-95l-189 -45v-1155l189 -45v-94h-629zM506 1694q0 55 39 94t96 39q55 0 94 -39t39 -94q0 -58 -39 -97q-38 -38 -94 -38t-95 38 q-40 39 -40 97z" />
<glyph unicode="&#xd0;" horiz-adv-x="1531" d="M90 0v94l189 45v535h-189v94h189v526l-189 45v95h533q186 0 336 -45q148 -44 255 -136q103 -88 161 -224q57 -133 57 -312t-57 -314q-58 -137 -161 -224q-107 -90 -253 -134q-150 -45 -338 -45h-533zM530 137h82q110 0 212 30q104 30 180 98q76 67 123 179t47 273 q0 160 -47 272t-123 179q-78 69 -180 99q-99 29 -212 29h-82v-528h314v-94h-314v-537z" />
<glyph unicode="&#xd1;" horiz-adv-x="1681" d="M90 0v94l189 45v1155l-189 45v95h332l854 -1014v874l-189 45v95h527v-95l-189 -45v-1294h-122l-881 1038v-899l188 -45v-94h-520zM461 1657q58 92 113 135q57 45 141 51q74 0 150 -58q77 -59 130 -59q62 0 162 86l62 -59q-32 -70 -101 -131q-66 -59 -151 -59 q-60 0 -134 58t-149 58q-53 0 -160 -86z" />
<glyph unicode="&#xd2;" horiz-adv-x="1576" d="M104 723q0 153 41 288q40 132 125 235q84 102 214 160q129 58 307 58q166 0 292 -55q127 -55 215 -154q90 -100 134 -235q45 -137 45 -301q0 -165 -44 -303t-131 -237q-85 -97 -216 -154q-129 -56 -295 -56q-179 0 -309 60q-132 61 -214 160q-83 101 -124 239 q-40 135 -40 295zM367 717q0 -295 113 -460q114 -167 311 -167q196 0 310 167q113 165 113 460q0 277 -107 451q-108 175 -316 175q-209 0 -317 -175q-107 -174 -107 -451zM504 1692q28 54 73 98q46 44 97 61l323 -280l-55 -66z" />
<glyph unicode="&#xd3;" horiz-adv-x="1576" d="M104 723q0 153 41 288q40 132 125 235q84 102 214 160q129 58 307 58q166 0 292 -55q127 -55 215 -154q90 -100 134 -235q45 -137 45 -301q0 -165 -44 -303t-131 -237q-85 -97 -216 -154q-129 -56 -295 -56q-179 0 -309 60q-132 61 -214 160q-83 101 -124 239 q-40 135 -40 295zM367 717q0 -295 113 -460q114 -167 311 -167q196 0 310 167q113 165 113 460q0 277 -107 451q-108 175 -316 175q-209 0 -317 -175q-107 -174 -107 -451zM643 1571l324 280q103 -35 170 -159l-439 -187z" />
<glyph unicode="&#xd4;" horiz-adv-x="1576" d="M104 723q0 153 41 288q40 132 125 235q84 102 214 160q129 58 307 58q166 0 292 -55q127 -55 215 -154q90 -100 134 -235q45 -137 45 -301q0 -165 -44 -303t-131 -237q-85 -97 -216 -154q-129 -56 -295 -56q-179 0 -309 60q-132 61 -214 160q-83 101 -124 239 q-40 135 -40 295zM367 717q0 -295 113 -460q114 -167 311 -167q196 0 310 167q113 165 113 460q0 277 -107 451q-108 175 -316 175q-209 0 -317 -175q-107 -174 -107 -451zM432 1571l277 299h172l266 -299l-103 -47l-249 188l-269 -190z" />
<glyph unicode="&#xd5;" horiz-adv-x="1576" d="M104 723q0 153 41 288q40 132 125 235q84 102 214 160q129 58 307 58q166 0 292 -55q127 -55 215 -154q90 -100 134 -235q45 -137 45 -301q0 -165 -44 -303t-131 -237q-85 -97 -216 -154q-129 -56 -295 -56q-179 0 -309 60q-132 61 -214 160q-83 101 -124 239 q-40 135 -40 295zM367 717q0 -295 113 -460q114 -167 311 -167q196 0 310 167q113 165 113 460q0 277 -107 451q-108 175 -316 175q-209 0 -317 -175q-107 -174 -107 -451zM412 1686q58 92 113 135q57 45 141 51q74 0 150 -58q77 -59 130 -59q62 0 162 86l61 -59 q-33 -71 -100 -131t-151 -60q-59 0 -135 59q-74 58 -148 58q-53 0 -160 -86z" />
<glyph unicode="&#xd6;" horiz-adv-x="1576" d="M104 723q0 153 41 288q40 132 125 235q84 102 214 160q129 58 307 58q166 0 292 -55q127 -55 215 -154q90 -100 134 -235q45 -137 45 -301q0 -165 -44 -303t-131 -237q-85 -97 -216 -154q-129 -56 -295 -56q-179 0 -309 60q-132 61 -214 160q-83 101 -124 239 q-40 135 -40 295zM367 717q0 -295 113 -460q114 -167 311 -167q196 0 310 167q113 165 113 460q0 277 -107 451q-108 175 -316 175q-209 0 -317 -175q-107 -174 -107 -451zM453 1694q0 58 39 95q40 38 94 38q55 0 94 -39t39 -94q0 -58 -39 -97q-38 -38 -94 -38t-94 38 q-39 39 -39 97zM891 1694q0 55 39 94t96 39q55 0 94 -39t39 -94q0 -58 -39 -97q-38 -38 -94 -38t-95 38q-40 39 -40 97z" />
<glyph unicode="&#xd7;" horiz-adv-x="1122" d="M121 389l344 342l-344 344l98 96l342 -342l346 345l97 -99l-345 -344l345 -344l-97 -96l-344 344l-344 -342z" />
<glyph unicode="&#xd8;" horiz-adv-x="1576" d="M104 717q0 156 41 291q40 132 123 236q82 104 216 162q132 58 307 58q162 0 288 -53l56 102h131l-84 -155q145 -94 220 -263t75 -378q0 -328 -174 -538t-512 -210q-169 0 -308 58l-55 -109h-133l86 168q-139 97 -207 261q-70 167 -70 370zM367 717q0 -285 110 -451 l531 1010q-94 67 -217 67q-209 0 -317 -175q-107 -174 -107 -451zM559 170q92 -80 232 -80q208 0 316 175q107 174 107 452q0 297 -122 471z" />
<glyph unicode="&#xd9;" horiz-adv-x="1615" d="M45 1339v95h629v-95l-189 -45v-757q0 -206 102 -308t273 -102t275 103t104 307v757l-190 45v95h524v-95l-189 -45v-757q0 -135 -42 -242q-43 -108 -117 -178q-77 -73 -182 -110q-106 -38 -230 -38q-128 0 -233 37q-107 38 -184 110q-76 71 -120 178q-43 104 -43 243v757z M446 1692q28 54 73 98q46 44 97 61l324 -280l-55 -66z" />
<glyph unicode="&#xda;" horiz-adv-x="1615" d="M45 1339v95h629v-95l-189 -45v-757q0 -206 102 -308t273 -102t275 103t104 307v757l-190 45v95h524v-95l-189 -45v-757q0 -135 -42 -242q-43 -108 -117 -178q-77 -73 -182 -110q-106 -38 -230 -38q-128 0 -233 37q-107 38 -184 110q-76 71 -120 178q-43 104 -43 243v757z M709 1571l323 280q103 -35 170 -159l-438 -187z" />
<glyph unicode="&#xdb;" horiz-adv-x="1615" d="M45 1339v95h629v-95l-189 -45v-757q0 -206 102 -308t273 -102t275 103t104 307v757l-190 45v95h524v-95l-189 -45v-757q0 -135 -42 -242q-43 -108 -117 -178q-77 -73 -182 -110q-106 -38 -230 -38q-128 0 -233 37q-107 38 -184 110q-76 71 -120 178q-43 104 -43 243v757z M506 1571l276 299h172l267 -299l-103 -47l-250 188l-268 -190z" />
<glyph unicode="&#xdc;" horiz-adv-x="1615" d="M45 1339v95h629v-95l-189 -45v-757q0 -206 102 -308t273 -102t275 103t104 307v757l-190 45v95h524v-95l-189 -45v-757q0 -135 -42 -242q-43 -108 -117 -178q-77 -73 -182 -110q-106 -38 -230 -38q-128 0 -233 37q-107 38 -184 110q-76 71 -120 178q-43 104 -43 243v757z M516 1694q0 58 39 95q40 38 94 38q55 0 94 -39t39 -94q0 -58 -39 -97q-38 -38 -94 -38t-94 38q-39 39 -39 97zM954 1694q0 55 39 94t97 39q55 0 94 -39t39 -94q0 -58 -39 -97q-38 -38 -94 -38q-57 0 -96 38q-40 39 -40 97z" />
<glyph unicode="&#xdd;" horiz-adv-x="1421" d="M-18 1339v95h589v-95l-133 -26l338 -498l303 483l-151 41v95h502v-95l-189 -45l-397 -632v-523l188 -45v-94h-629v94l189 45v516l-445 643zM580 1571l323 280q103 -35 170 -159l-438 -187z" />
<glyph unicode="&#xde;" horiz-adv-x="1296" d="M90 0v94l189 45v1155l-189 45v95h629v-95l-189 -45v-176h140q569 0 569 -401q0 -406 -569 -406h-140v-172l189 -45v-94h-629zM530 434h109q153 0 248 72q94 72 94 211q0 272 -342 272h-109v-555z" />
<glyph unicode="&#xdf;" horiz-adv-x="1359" d="M43 0v88l174 41v973q0 206 117 331q116 123 344 123q237 0 357 -123q122 -125 122 -331v-148h-196q-191 0 -191 -141q0 -62 52 -105q57 -47 163 -90q156 -63 238 -142q84 -81 84 -212q0 -139 -114 -217t-296 -78q-152 0 -307 47v293h94l86 -223q36 -4 55 -4 q248 0 248 160q0 38 -14 65q-15 29 -57 54q-39 24 -70 40q-25 13 -103 45q-260 107 -260 326q0 132 95 212q94 79 249 79v49q0 332 -219 332q-104 0 -169 -83q-64 -82 -64 -259v-1102h-418z" />
<glyph unicode="&#xe0;" horiz-adv-x="1128" d="M72 254q0 354 628 354v72q0 178 -50 226t-156 48l-240 -204q-48 29 -83 87q-35 57 -36 119q88 48 189 73q104 26 202 26q420 0 420 -353v-569h160v-67q-46 -45 -105 -71q-58 -26 -112 -26q-121 0 -178 105q-137 -105 -310 -105q-135 0 -232 72t-97 213zM213 1466 q72 88 193 109l206 -365l-86 -59zM330 262q0 -74 50 -112q49 -37 128 -37q112 0 192 69v322q-183 0 -277 -67q-93 -66 -93 -175z" />
<glyph unicode="&#xe1;" horiz-adv-x="1128" d="M72 254q0 354 628 354v72q0 178 -50 226t-156 48l-240 -204q-48 29 -83 87q-35 57 -36 119q88 48 189 73q104 26 202 26q420 0 420 -353v-569h160v-67q-46 -45 -105 -71q-58 -26 -112 -26q-121 0 -178 105q-137 -105 -310 -105q-135 0 -232 72t-97 213zM330 262 q0 -74 50 -112q49 -37 128 -37q112 0 192 69v322q-183 0 -277 -67q-93 -66 -93 -175zM477 1204l213 373q120 -21 191 -109l-316 -323z" />
<glyph unicode="&#xe2;" horiz-adv-x="1128" d="M72 254q0 354 628 354v72q0 178 -50 226t-156 48l-240 -204q-48 29 -83 87q-35 57 -36 119q88 48 189 73q104 26 202 26q420 0 420 -353v-569h160v-67q-46 -45 -105 -71q-58 -26 -112 -26q-121 0 -178 105q-137 -105 -310 -105q-135 0 -232 72t-97 213zM221 1155l215 250 h157l218 -250l-86 -33l-211 172l-209 -172zM330 262q0 -74 50 -112q49 -37 128 -37q112 0 192 69v322q-183 0 -277 -67q-93 -66 -93 -175z" />
<glyph unicode="&#xe3;" horiz-adv-x="1128" d="M72 254q0 354 628 354v72q0 178 -50 226t-156 48l-240 -204q-48 29 -83 87q-35 57 -36 119q88 48 189 73q104 26 202 26q420 0 420 -353v-569h160v-67q-46 -45 -105 -71q-58 -26 -112 -26q-121 0 -178 105q-137 -105 -310 -105q-135 0 -232 72t-97 213zM250 1285 q44 81 96 129t102 48q59 0 106 -53t88 -53q62 0 131 79l46 -53q-42 -85 -91 -130q-52 -48 -105 -48q-60 0 -108 53q-49 54 -88 54q-51 0 -131 -81zM330 262q0 -74 50 -112q49 -37 128 -37q112 0 192 69v322q-183 0 -277 -67q-93 -66 -93 -175z" />
<glyph unicode="&#xe4;" horiz-adv-x="1128" d="M72 254q0 354 628 354v72q0 178 -50 226t-156 48l-240 -204q-48 29 -83 87q-35 57 -36 119q88 48 189 73q104 26 202 26q420 0 420 -353v-569h160v-67q-46 -45 -105 -71q-58 -26 -112 -26q-121 0 -178 105q-137 -105 -310 -105q-135 0 -232 72t-97 213zM223 1366 q0 55 39 94t96 39q56 0 95 -39t39 -94q0 -57 -39 -96t-95 -39q-58 0 -96 39q-39 38 -39 96zM330 262q0 -74 50 -112q49 -37 128 -37q112 0 192 69v322q-183 0 -277 -67q-93 -66 -93 -175zM633 1366q0 55 39 94t96 39q55 0 94 -39t39 -94q0 -57 -39 -96t-94 -39q-58 0 -96 39 q-39 38 -39 96z" />
<glyph unicode="&#xe5;" horiz-adv-x="1128" d="M72 254q0 354 628 354v72q0 178 -50 226t-156 48l-240 -204q-48 29 -83 87q-35 57 -36 119q88 48 189 73q104 26 202 26q420 0 420 -353v-569h160v-67q-46 -45 -105 -71q-58 -26 -112 -26q-121 0 -178 105q-137 -105 -310 -105q-135 0 -232 72t-97 213zM330 262 q0 -74 50 -112q49 -37 128 -37q112 0 192 69v322q-183 0 -277 -67q-93 -66 -93 -175zM350 1374q0 94 68 159q67 64 155 64q89 0 156 -64q68 -65 68 -159t-68 -159q-67 -64 -156 -64q-91 0 -156 64q-67 65 -67 159zM461 1374q0 -47 33 -80q32 -32 79 -32q48 0 80 32 q33 33 33 80q0 45 -34 79t-79 34q-44 0 -78 -34t-34 -79z" />
<glyph unicode="&#xe6;" horiz-adv-x="1703" d="M70 254q0 354 624 354v72q0 141 -42 210q-41 68 -173 68l-229 -208q-47 39 -76 94q-32 60 -33 112q13 8 47 27q31 17 128 44q101 28 196 28q252 0 348 -135q130 135 330 135q229 0 335 -154q105 -153 105 -395h-690q12 -172 111 -288t268 -116q103 0 235 48l31 -97 q-191 -84 -358 -84q-120 0 -242 49q-123 50 -192 162l-17 -22q-12 -17 -47 -52q-38 -38 -80 -64q-46 -29 -113 -50q-72 -23 -149 -23q-129 0 -223 72t-94 213zM328 262q0 -68 39 -112t106 -44q133 0 213 119l8 13v266q-181 0 -274 -70q-92 -69 -92 -172zM940 600l438 29 q-5 84 -19 146q-15 64 -60 115q-44 51 -111 52q-109 0 -173 -97t-75 -245z" />
<glyph unicode="&#xe7;" horiz-adv-x="1001" d="M88 508q0 243 149 395t359 152q182 0 328 -86q-1 -69 -41 -128q-39 -58 -88 -85l-197 186h-12q-104 -18 -176 -132t-72 -298q0 -211 97 -309q97 -99 257 -99q123 0 230 58l34 -101q-173 -92 -350 -92h-14l-10 -39q102 -4 158 -55q57 -51 57 -133q0 -108 -77 -171 q-76 -63 -214 -63q-48 0 -158 23v115q80 -17 127 -17q59 0 93 30t34 81q0 109 -149 119l32 123q-142 28 -249 129q-148 145 -148 397z" />
<glyph unicode="&#xe8;" horiz-adv-x="1095" d="M86 524q0 225 129 378t356 153q118 0 208 -44q89 -44 142 -122q52 -77 76 -174q25 -100 25 -209h-692q15 -170 112 -286q99 -118 269 -118q103 0 235 48l35 -97q-191 -84 -363 -84q-248 0 -390 162q-142 161 -142 393zM272 1466q72 88 193 109l207 -365l-86 -59zM330 606 l438 33q-6 123 -57 213t-146 90q-103 0 -167 -96q-63 -94 -68 -240z" />
<glyph unicode="&#xe9;" horiz-adv-x="1095" d="M86 524q0 225 129 378t356 153q118 0 208 -44q89 -44 142 -122q52 -77 76 -174q25 -100 25 -209h-692q15 -170 112 -286q99 -118 269 -118q103 0 235 48l35 -97q-191 -84 -363 -84q-248 0 -390 162q-142 161 -142 393zM330 606l438 33q-6 123 -57 213t-146 90 q-103 0 -167 -96q-63 -94 -68 -240zM528 1204l213 373q120 -21 191 -109l-316 -323z" />
<glyph unicode="&#xea;" horiz-adv-x="1095" d="M86 524q0 225 129 378t356 153q118 0 208 -44q89 -44 142 -122q52 -77 76 -174q25 -100 25 -209h-692q15 -170 112 -286q99 -118 269 -118q103 0 235 48l35 -97q-191 -84 -363 -84q-248 0 -390 162q-142 161 -142 393zM250 1190l235 379h172l240 -379l-94 -49l-232 260 l-229 -260zM330 606l438 33q-6 123 -57 213t-146 90q-103 0 -167 -96q-63 -94 -68 -240z" />
<glyph unicode="&#xeb;" horiz-adv-x="1095" d="M86 524q0 225 129 378t356 153q118 0 208 -44q89 -44 142 -122q52 -77 76 -174q25 -100 25 -209h-692q15 -170 112 -286q99 -118 269 -118q103 0 235 48l35 -97q-191 -84 -363 -84q-248 0 -390 162q-142 161 -142 393zM233 1366q0 55 39 94t97 39q55 0 94 -39t39 -94 q0 -57 -39 -96t-94 -39q-59 0 -97 39q-39 38 -39 96zM330 606l438 33q-6 123 -57 213t-146 90q-103 0 -167 -96q-63 -94 -68 -240zM643 1366q0 55 39 94t96 39q55 0 94 -39t39 -94q0 -57 -39 -96t-94 -39q-58 0 -96 39q-39 38 -39 96z" />
<glyph unicode="&#xec;" horiz-adv-x="708" d="M20 1466q72 88 193 109l207 -365l-86 -59zM74 0v88l174 41v729h-174v88l327 78h93v-895l174 -41v-88h-594z" />
<glyph unicode="&#xed;" horiz-adv-x="708" d="M74 0v88l174 41v729h-174v88l327 78h93v-895l174 -41v-88h-594zM266 1204l213 373q120 -21 191 -109l-316 -323z" />
<glyph unicode="&#xee;" horiz-adv-x="708" d="M20 1190l236 379h172l240 -379l-95 -49l-231 260l-229 -260zM74 0v88l174 41v729h-174v88l327 78h93v-895l174 -41v-88h-594z" />
<glyph unicode="&#xef;" horiz-adv-x="708" d="M35 1366q0 55 39 94t96 39q55 0 94 -39t39 -94q0 -57 -39 -96t-94 -39q-58 0 -96 39q-39 38 -39 96zM74 0v88l174 41v729h-174v88l327 78h93v-895l174 -41v-88h-594zM444 1366q0 55 39 94t97 39q55 0 94 -39t39 -94q0 -57 -39 -96t-94 -39q-60 0 -97 39q-39 38 -39 96z " />
<glyph unicode="&#xf0;" horiz-adv-x="1257" d="M92 492q0 208 123 348q123 139 330 139q175 0 299 -107q-30 225 -191 377l-291 -178v139l189 115q-112 70 -250 92v133q225 -22 404 -131l241 150v-142l-135 -81q311 -253 311 -711q0 -146 -26 -257q-28 -120 -86 -211q-61 -96 -166 -148t-254 -52q-254 0 -376 143 t-122 382zM350 483q0 -107 24 -196q24 -88 81 -148q56 -59 143 -59q262 0 262 481q0 50 -10 201q-101 74 -211 74q-129 0 -209 -86t-80 -267z" />
<glyph unicode="&#xf1;" horiz-adv-x="1363" d="M74 0v88l174 41v729h-174v88l327 78h93v-98q156 129 329 129q161 0 252 -90q92 -90 92 -232v-604l174 -41v-88h-550v88l133 41v567q0 209 -179 209q-121 0 -251 -94v-682l133 -41v-88h-553zM305 1317q61 86 133 134q74 50 142 50q82 0 146 -55t122 -55q87 0 182 82 l64 -56q-56 -86 -127 -135t-146 -49q-83 0 -148 55t-122 55q-72 0 -182 -83z" />
<glyph unicode="&#xf2;" d="M86 514q0 236 148 388q148 153 374 153t373 -153t147 -388q0 -238 -147 -391q-148 -154 -373 -154t-374 154q-148 152 -148 391zM317 1466q72 88 193 109l207 -365l-86 -59zM344 514q0 -194 69 -313t195 -119q127 0 196 120q68 118 68 312q0 196 -68 311 q-69 117 -196 117q-126 0 -195 -117t-69 -311z" />
<glyph unicode="&#xf3;" d="M86 514q0 236 148 388q148 153 374 153t373 -153t147 -388q0 -238 -147 -391q-148 -154 -373 -154t-374 154q-148 152 -148 391zM344 514q0 -194 69 -313t195 -119q127 0 196 120q68 118 68 312q0 196 -68 311q-69 117 -196 117q-126 0 -195 -117t-69 -311zM555 1204 l213 373q118 -21 190 -109l-315 -323z" />
<glyph unicode="&#xf4;" d="M86 514q0 236 148 388q148 153 374 153t373 -153t147 -388q0 -238 -147 -391q-148 -154 -373 -154t-374 154q-148 152 -148 391zM285 1190l235 379h172l240 -379l-94 -49l-232 260l-229 -260zM344 514q0 -194 69 -313t195 -119q127 0 196 120q68 118 68 312 q0 196 -68 311q-69 117 -196 117q-126 0 -195 -117t-69 -311z" />
<glyph unicode="&#xf5;" d="M86 514q0 236 148 388q148 153 374 153t373 -153t147 -388q0 -238 -147 -391q-148 -154 -373 -154t-374 154q-148 152 -148 391zM213 1317q61 86 133 134q74 50 141 50q83 0 147 -55t122 -55q87 0 182 82l63 -56q-56 -86 -127 -135t-145 -49q-83 0 -148 55t-122 55 q-73 0 -183 -83zM344 514q0 -194 69 -313t195 -119q127 0 196 120q68 118 68 312q0 196 -68 311q-69 117 -196 117q-126 0 -195 -117t-69 -311z" />
<glyph unicode="&#xf6;" d="M86 514q0 236 148 388q148 153 374 153t373 -153t147 -388q0 -238 -147 -391q-148 -154 -373 -154t-374 154q-148 152 -148 391zM268 1366q0 55 39 94t96 39q56 0 95 -39t39 -94q0 -57 -39 -96t-95 -39q-59 0 -96 39q-39 38 -39 96zM344 514q0 -194 69 -313t195 -119 q127 0 196 120q68 118 68 312q0 196 -68 311q-69 117 -196 117q-126 0 -195 -117t-69 -311zM678 1366q0 55 39 94t96 39q55 0 94 -39t39 -94q0 -57 -39 -96t-94 -39q-59 0 -96 39q-39 38 -39 96z" />
<glyph unicode="&#xf7;" horiz-adv-x="1110" d="M96 662v137h922v-137h-922zM418 383q0 56 41 97q40 40 98 40q57 0 97 -40t40 -97q0 -54 -41 -97q-41 -42 -96 -42q-57 0 -98 42q-41 43 -41 97zM418 1077q0 57 41 98q39 39 98 39q58 0 97 -39q40 -40 40 -98q0 -54 -41 -97q-41 -42 -96 -42q-57 0 -98 42q-41 43 -41 97z " />
<glyph unicode="&#xf8;" d="M86 514q0 238 148 389q149 152 374 152q114 0 221 -45l84 155h115l-113 -204q213 -153 213 -447q0 -238 -147 -391q-148 -154 -373 -154q-111 0 -211 41l-86 -155h-116l112 204q-221 158 -221 455zM344 514q0 -177 55 -287l359 656q-62 59 -150 59q-126 0 -195 -117 t-69 -311zM465 135q61 -53 143 -53q127 0 196 119q68 117 68 313q0 162 -51 274z" />
<glyph unicode="&#xf9;" horiz-adv-x="1323" d="M27 936v88h417v-707q0 -204 177 -204q140 0 262 104v678l-133 41v88h376v-891h160v-67q-49 -43 -109 -70t-120 -27q-47 0 -83 18q-37 18 -54 44q-23 35 -27 44q-9 22 -10 29q-162 -135 -348 -135q-164 0 -249 88t-85 234v604zM360 1466q72 88 193 109l207 -365l-86 -59z " />
<glyph unicode="&#xfa;" horiz-adv-x="1323" d="M27 936v88h417v-707q0 -204 177 -204q140 0 262 104v678l-133 41v88h376v-891h160v-67q-49 -43 -109 -70t-120 -27q-47 0 -83 18q-37 18 -54 44q-23 35 -27 44q-9 22 -10 29q-162 -135 -348 -135q-164 0 -249 88t-85 234v604zM547 1204l213 373q118 -21 190 -109 l-315 -323z" />
<glyph unicode="&#xfb;" horiz-adv-x="1323" d="M27 936v88h417v-707q0 -204 177 -204q140 0 262 104v678l-133 41v88h376v-891h160v-67q-49 -43 -109 -70t-120 -27q-47 0 -83 18q-37 18 -54 44q-23 35 -27 44q-9 22 -10 29q-162 -135 -348 -135q-164 0 -249 88t-85 234v604zM328 1190l235 379h172l240 -379l-94 -49 l-232 260l-229 -260z" />
<glyph unicode="&#xfc;" horiz-adv-x="1323" d="M27 936v88h417v-707q0 -204 177 -204q140 0 262 104v678l-133 41v88h376v-891h160v-67q-49 -43 -109 -70t-120 -27q-47 0 -83 18q-37 18 -54 44q-23 35 -27 44q-9 22 -10 29q-162 -135 -348 -135q-164 0 -249 88t-85 234v604zM322 1366q0 56 38 94q39 39 97 39 q55 0 94 -39t39 -94q0 -57 -39 -96t-94 -39q-59 0 -97 39q-38 37 -38 96zM731 1366q0 55 39 94t96 39q56 0 95 -39q38 -38 38 -94q0 -58 -38 -96q-39 -39 -95 -39q-58 0 -96 39q-39 37 -39 96z" />
<glyph unicode="&#xfd;" horiz-adv-x="1228" d="M2 936v88h559v-88l-158 -31l291 -649l246 639l-164 41v88h453v-88l-162 -43l-580 -1505q-93 0 -138 26q-46 27 -70 66l292 465l-430 952zM530 1204l213 373q120 -21 191 -109l-316 -323z" />
<glyph unicode="&#xfe;" horiz-adv-x="1200" d="M-14 -475l174 41v1907h-174v88l327 77h86v-667q123 84 271 84q189 0 317 -128q127 -127 127 -378q0 -279 -164 -429q-165 -151 -407 -151q-79 0 -144 17v-420l215 -41v-88h-628v88zM399 98q54 -16 125 -16q155 0 243 118q89 119 89 341q0 171 -74 266q-73 94 -200 94 q-88 0 -183 -45v-758z" />
<glyph unicode="&#xff;" horiz-adv-x="1228" d="M2 936v88h559v-88l-158 -31l291 -649l246 639l-164 41v88h453v-88l-162 -43l-580 -1505q-93 0 -138 26q-46 27 -70 66l292 465l-430 952zM315 1366q0 55 39 94t97 39q55 0 94 -39t39 -94q0 -57 -39 -96t-94 -39q-59 0 -97 39q-39 38 -39 96zM725 1366q0 55 39 94t96 39 q55 0 94 -39t39 -94q0 -57 -39 -96t-94 -39q-58 0 -96 39q-39 37 -39 96z" />
<glyph unicode="&#x102;" horiz-adv-x="1466" d="M-20 0v94l192 45l498 1305h147l467 -1307l189 -43v-94h-603v94l152 35l-98 277h-502l-107 -271l181 -41v-94h-516zM467 526h412l-201 559zM532 1810l58 5q23 -49 57 -76q35 -29 93 -29t104 23q37 21 55 82l59 -5q-4 -127 -65 -202q-63 -78 -148 -78q-81 0 -143 78 q-66 82 -70 202z" />
<glyph unicode="&#x103;" horiz-adv-x="1128" d="M72 254q0 354 628 354v72q0 178 -50 226t-156 48l-240 -204q-48 29 -83 87q-35 57 -36 119q88 48 189 73q104 26 202 26q420 0 420 -353v-569h160v-67q-46 -45 -105 -71q-58 -26 -112 -26q-121 0 -178 105q-137 -105 -310 -105q-135 0 -232 72t-97 213zM293 1581h55 q20 -64 66 -99q44 -34 127 -34q93 0 136 33q44 33 66 100h56q-6 -150 -81 -243t-171 -93t-171 93q-76 94 -83 243zM330 262q0 -74 50 -112q49 -37 128 -37q112 0 192 69v322q-183 0 -277 -67q-93 -66 -93 -175z" />
<glyph unicode="&#x110;" horiz-adv-x="1531" d="M90 0v94l189 45v535h-189v94h189v526l-189 45v95h533q186 0 336 -45q148 -44 255 -136q103 -88 161 -224q57 -133 57 -312t-57 -314q-58 -137 -161 -224q-107 -90 -253 -134q-150 -45 -338 -45h-533zM530 137h82q110 0 212 30q104 30 180 98q76 67 123 179t47 273 q0 160 -47 272t-123 179q-78 69 -180 99q-99 29 -212 29h-82v-528h314v-94h-314v-537z" />
<glyph unicode="&#x111;" horiz-adv-x="1261" d="M88 475q0 276 170 428t412 152q82 0 149 -19v185h-254v88l254 -1v165h-174v88l328 77h92v-331h197v-86h-197v-1088h160v-67l-33 -27q-21 -16 -77 -43q-57 -27 -109 -27q-21 0 -44 5q-14 3 -38 14q-17 8 -31 19q-16 13 -24 22q-12 14 -18 22q-2 3 -13 21q-1 1 -5 7.5 t-6 10.5l-4 8q-123 -129 -303 -129q-178 0 -305 130t-127 376zM340 483q0 -177 79 -268q80 -92 187 -92q115 0 213 76v723q-60 20 -131 20q-156 0 -252 -117t-96 -342z" />
<glyph unicode="&#x128;" horiz-adv-x="806" d="M90 -18v94l191 47v1165l-191 45v97h629v-97l-189 -45v-1165l189 -47v-94h-629zM168 1633q34 87 69 133q34 44 86 50q45 0 91 -57q47 -58 79 -58q38 0 98 85l37 -58q-19 -70 -61 -130q-40 -58 -92 -58q-36 0 -81 57q-46 58 -90 58q-33 0 -97 -85z" />
<glyph unicode="&#x129;" horiz-adv-x="706" d="M68 1315q35 90 69 134t85 50q45 0 92 -58q46 -57 78 -57q39 0 99 85l37 -59q-19 -68 -61 -129q-41 -59 -92 -59q-35 0 -81 58t-90 58q-33 0 -97 -85zM74 0v88l174 41v729h-174v88l327 78h91v-895l174 -41v-88h-592z" />
<glyph unicode="&#x131;" horiz-adv-x="708" d="M74 0v88l174 41v729h-174v88l327 78h93v-895l174 -41v-88h-594z" />
<glyph unicode="&#x152;" horiz-adv-x="2236" d="M104 717q0 156 41 291q40 132 123 236q82 104 216 162q132 58 307 58q267 0 430 -223v193h868v-420h-94l-86 282h-461v-512l457 41v-182l-457 39v-545h459l149 305h94l-61 -442h-868v190q-162 -221 -430 -221q-229 0 -388 103q-157 102 -228 267q-71 166 -71 378z M367 717q0 -134 27 -248q26 -112 81 -199q52 -83 133 -132q80 -48 183 -48q101 0 184 48q81 47 140 132t89 196q31 115 31 241q0 139 -30 256t-86 201q-57 86 -139 132q-83 47 -189 47q-104 0 -184 -47q-78 -46 -133 -131q-54 -84 -81 -198q-26 -110 -26 -250z" />
<glyph unicode="&#x153;" horiz-adv-x="1888" d="M86 512q0 119 39 218q40 102 107 172q70 73 163 113t207 40q250 0 397 -195q133 195 377 195q121 0 205 -45t135 -120q52 -76 74 -174q22 -97 22 -210h-679q8 -87 33 -160q26 -74 72 -128q48 -55 113 -85q68 -31 154 -31q103 0 236 48l31 -97q-192 -84 -359 -84 q-266 0 -407 203q-146 -203 -404 -203q-114 0 -207 40t-163 113q-67 70 -107 172q-39 99 -39 218zM342 512q0 -199 66 -314q66 -116 194 -116q62 0 113 31q49 30 82 87q32 56 49 136q16 77 16 176q0 200 -65 314q-66 116 -195 116q-128 0 -194 -116t-66 -314zM1133 604 l434 35q-1 50 -15 112q-13 57 -35 96q-24 41 -60 67q-37 27 -81 28q-106 0 -169 -95q-62 -93 -74 -243z" />
<glyph unicode="&#x168;" horiz-adv-x="1615" d="M45 1339v95h629v-95l-189 -45v-757q0 -205 103 -308q100 -102 272 -102q170 0 275 102q104 104 104 308v757l-190 45v95h524v-95l-189 -45v-757q0 -137 -43 -242q-44 -107 -116 -178q-76 -71 -183 -109q-105 -39 -229 -39q-127 0 -231 37q-107 38 -185 111 q-78 72 -121 178q-43 105 -43 242v757zM629 1666q34 87 69 133q34 44 85 50q45 0 92 -57q47 -58 79 -58q38 0 98 85l37 -59q-19 -68 -61 -129q-40 -58 -92 -58q-36 0 -81 57q-46 58 -90 58q-33 0 -97 -85z" />
<glyph unicode="&#x169;" horiz-adv-x="1323" d="M27 936v88h417v-707q0 -204 177 -204q140 0 262 104v678l-133 41v88h376v-891h160v-67q-49 -43 -110 -70q-60 -27 -119 -27q-44 0 -84 19q-36 17 -53 43q-22 33 -27 45q-9 20 -10 28q-162 -135 -348 -135q-165 0 -250 88q-85 89 -84 234v604zM390 1387q34 87 69 133 q35 45 85 51q44 0 91 -58q47 -57 79 -57q39 0 98 84l37 -58q-19 -70 -60 -129t-92 -59q-36 0 -82 58q-45 57 -90 57q-33 0 -97 -85z" />
<glyph unicode="&#x1a0;" horiz-adv-x="1581" d="M92 723q0 153 41 288q40 133 126 235q85 101 216 160q129 58 309 58q170 0 296 -55q130 -57 217 -154q91 -102 135 -235q45 -137 45 -301q0 -165 -44 -303q-44 -137 -133 -237q-88 -99 -217 -154q-130 -56 -299 -56q-180 0 -311 60q-133 61 -216 160q-84 100 -125 239 q-40 135 -40 295zM356 717q0 -292 115 -460q114 -167 313 -167q200 0 314 167t114 460q0 276 -108 451t-320 175q-211 0 -319 -175q-109 -177 -109 -451zM1325 1272q11 8 84 63l-66 131q34 48 95 60q62 12 110 -10q62 -29 74 -78q15 -54 -27 -107q-65 -75 -184 -127 q-23 -8 -55 -12z" />
<glyph unicode="&#x1a1;" d="M86 514q0 236 148 388q148 153 374 153t373 -153t147 -388q0 -238 -147 -391q-148 -154 -373 -154t-374 154q-148 152 -148 391zM344 514q0 -194 69 -313t195 -119q127 0 196 120q68 118 68 312q0 196 -68 311q-69 117 -196 117q-126 0 -195 -117t-69 -311zM1055 874 l82 66l-64 129q33 47 94 59q63 12 109 -10q61 -28 76 -78q15 -55 -29 -106q-64 -75 -182 -127q-22 -7 -56 -12z" />
<glyph unicode="&#x1af;" horiz-adv-x="1615" d="M45 1339v95h629v-95l-189 -45v-757q0 -206 102 -308t273 -102t275 103t104 307v757l-190 45v95h383v-95l-48 -45v-757q0 -135 -42 -242q-43 -108 -117 -178q-77 -73 -182 -110q-106 -38 -230 -38q-128 0 -233 37q-107 38 -184 110q-76 71 -120 178q-43 104 -43 243v757z M1417 1294q3 2 13 10l30 24t41 32l-63 129q33 46 94 61q62 12 108 -12q61 -28 76 -78q15 -56 -28 -106q-63 -74 -183 -127q-28 -9 -55 -13z" />
<glyph unicode="&#x1b0;" horiz-adv-x="1323" d="M27 936v88h417v-707q0 -204 177 -204q140 0 262 104v678l-133 41v88h376v-891h160v-67q-49 -43 -109 -70t-120 -27q-47 0 -83 18q-37 18 -54 44q-23 35 -27 44q-9 22 -10 29q-162 -135 -348 -135q-164 0 -249 88t-85 234v604zM1139 874l82 66l-64 129q33 47 94 59 q63 12 109 -10q61 -28 76 -78q15 -54 -27 -106q-65 -75 -184 -127q-22 -7 -56 -12z" />
<glyph unicode="&#x2c6;" horiz-adv-x="716" d="M37 1190l235 379h172l240 -379l-94 -49l-232 260l-229 -260z" />
<glyph unicode="&#x2da;" horiz-adv-x="526" d="M41 1374q0 94 68 159q67 64 155 64q89 0 156 -64t67 -159t-67 -159t-156 -64q-91 0 -156 64q-67 65 -67 159zM152 1374q0 -48 32 -80t80 -32t80 32q33 33 33 80q0 45 -34 79t-79 34t-79 -34q-33 -33 -33 -79z" />
<glyph unicode="&#x2dc;" horiz-adv-x="849" d="M23 1317q61 86 133 134q74 50 141 50q82 0 146 -55t122 -55q88 0 183 82l63 -56q-56 -86 -127 -135t-145 -49q-84 0 -149 55t-122 55q-72 0 -182 -83z" />
<glyph unicode="&#x1ea0;" horiz-adv-x="1466" d="M-20 0v94l192 45l498 1305h147l467 -1307l189 -43v-94h-603v94l152 35l-98 277h-502l-107 -271l181 -41v-94h-516zM467 526h412l-201 559zM551 -264q0 49 37 83t90 34q54 0 88 -34q35 -35 35 -83t-37 -82q-40 -35 -86 -35q-52 0 -90 35q-37 34 -37 82z" />
<glyph unicode="&#x1ea1;" horiz-adv-x="1128" d="M72 254q0 354 628 354v72q0 178 -50 226t-156 48l-240 -204q-48 29 -83 87q-35 57 -36 119q88 48 189 73q104 26 202 26q420 0 420 -353v-569h160v-67q-46 -45 -105 -71q-58 -26 -112 -26q-121 0 -178 105q-137 -105 -310 -105q-135 0 -232 72t-97 213zM330 262 q0 -74 50 -112q49 -37 128 -37q112 0 192 69v322q-183 0 -277 -67q-93 -66 -93 -175zM551 -264q0 49 37 83t90 34q54 0 88 -34q35 -35 35 -83t-37 -82q-40 -35 -86 -35q-52 0 -90 35q-37 34 -37 82z" />
<glyph unicode="&#x1ea2;" horiz-adv-x="1466" d="M-20 0v94l192 45l498 1305h147l467 -1307l189 -43v-94h-603v94l152 35l-98 277h-502l-107 -271l181 -41v-94h-516zM467 526h412l-201 559zM596 1866q24 19 49 37q22 16 86 22q95 8 164 -33q53 -33 53 -108q0 -26 -12 -49q-15 -29 -39 -47q-29 -22 -49 -37l-86 -54 l-27 -30h-45l-4 47l76 88q23 28 25 64q2 37 -23 55q-17 12 -64 12l-67 -23q-32 22 -37 56z" />
<glyph unicode="&#x1ea3;" horiz-adv-x="1128" d="M72 254q0 354 628 354v72q0 178 -50 226t-156 48l-240 -204q-48 29 -83 87q-35 57 -36 119q88 48 189 73q104 26 202 26q420 0 420 -353v-569h160v-67q-46 -45 -105 -71q-58 -26 -112 -26q-121 0 -178 105q-137 -105 -310 -105q-135 0 -232 72t-97 213zM330 262 q0 -74 50 -112q49 -37 128 -37q112 0 192 69v322q-183 0 -277 -67q-93 -66 -93 -175zM401 1528q9 7 25.5 19.5t23.5 17.5q20 16 85 22q94 7 163 -33q54 -34 54 -108q0 -25 -13 -49q-16 -30 -37 -47q-40 -31 -51 -37l-86 -53l-24 -31h-47l-2 47l73 88q26 30 27 63 q2 35 -23 56q-16 12 -65 12l-66 -22q-33 22 -37 55z" />
<glyph unicode="&#x1ea4;" horiz-adv-x="1466" d="M-20 0v94l192 45l498 1305h147l467 -1307l189 -43v-94h-603v94l152 35l-98 277h-502l-107 -271l181 -41v-94h-516zM467 526h412l-201 559zM492 1507l188 218h117l181 -218l-69 -34l-170 137l-183 -139zM881 1686l141 245q80 -14 127 -71l-210 -213z" />
<glyph unicode="&#x1ea5;" horiz-adv-x="1128" d="M72 254q0 354 628 354v72q0 178 -50 226t-156 48l-240 -204q-48 29 -83 87q-35 57 -36 119q88 48 189 73q104 26 202 26q420 0 420 -353v-569h160v-67q-46 -45 -105 -71q-58 -26 -112 -26q-121 0 -178 105q-137 -105 -310 -105q-135 0 -232 72t-97 213zM242 1128l201 297 h147l205 -297l-81 -38l-197 204l-197 -204zM330 262q0 -74 50 -112q49 -37 128 -37q112 0 192 69v322q-183 0 -277 -67q-93 -66 -93 -175zM660 1348l164 269q90 -15 147 -79l-243 -233z" />
<glyph unicode="&#x1ea6;" horiz-adv-x="1466" d="M-20 0v94l192 45l498 1305h147l467 -1307l189 -43v-94h-603v94l152 35l-98 277h-502l-107 -271l181 -41v-94h-516zM348 1861q48 60 131 74l141 -251l-59 -41zM467 526h412l-201 559zM492 1507l188 218h117l181 -218l-69 -34l-170 137l-183 -139z" />
<glyph unicode="&#x1ea7;" horiz-adv-x="1128" d="M72 254q0 354 628 354v72q0 178 -50 226t-156 48l-240 -204q-48 29 -83 87q-35 57 -36 119q88 48 189 73q104 26 202 26q420 0 420 -353v-569h160v-67q-46 -45 -105 -71q-58 -26 -112 -26q-121 0 -178 105q-137 -105 -310 -105q-135 0 -232 72t-97 213zM124 1572 q56 71 148 87l159 -292l-66 -48zM266 1126l203 263h148l207 -263l-81 -34l-200 180l-197 -180zM330 262q0 -74 50 -112q49 -37 128 -37q112 0 192 69v322q-183 0 -277 -67q-93 -66 -93 -175z" />
<glyph unicode="&#x1ea8;" horiz-adv-x="1466" d="M-20 0v94l192 45l498 1305h147l467 -1307l189 -43v-94h-603v94l152 35l-98 277h-502l-107 -271l181 -41v-94h-516zM467 526h412l-201 559zM492 1507l188 218h117l181 -218l-69 -34l-170 137l-183 -139zM776 1905q10 7 26.5 19t18.5 13q17 14 76 19q84 7 145 -27 q49 -28 50 -92q0 -21 -13 -39q-17 -27 -32 -41q-41 -30 -46 -31l-77 -43l-23 -26h-41l-2 39l66 73q22 24 24 54q2 29 -20 45q-14 10 -58 10l-61 -18q-29 18 -33 45z" />
<glyph unicode="&#x1ea9;" horiz-adv-x="1128" d="M72 254q0 354 628 354v72q0 178 -50 226t-156 48l-240 -204q-48 29 -83 87q-35 57 -36 119q88 48 189 73q104 26 202 26q420 0 420 -353v-569h160v-67q-46 -45 -105 -71q-58 -26 -112 -26q-121 0 -178 105q-137 -105 -310 -105q-135 0 -232 72t-97 213zM221 1115l217 306 h159l221 -306l-87 -40l-214 211l-211 -211zM330 262q0 -74 50 -112q49 -37 128 -37q112 0 192 69v322q-183 0 -277 -67q-93 -66 -93 -175zM580 1638q11 8 27.5 21.5t19.5 15.5q22 17 86 23q95 8 164 -33q53 -33 53 -109q0 -26 -12 -47q-15 -28 -37 -49q-37 -28 -52 -37 l-86 -53l-24 -31h-47l-2 47l73 89q26 30 27 63q1 34 -22 55q-18 13 -66 13l-66 -23q-31 21 -36 55z" />
<glyph unicode="&#x1eaa;" horiz-adv-x="1466" d="M-20 0v94l192 45l498 1305h147l467 -1307l189 -43v-94h-603v94l152 35l-98 277h-502l-107 -271l181 -41v-94h-516zM467 526h412l-201 559zM492 1507l188 218h117l181 -218l-69 -34l-170 137l-183 -139zM522 1847q32 82 61 119q30 39 76 45q39 0 81 -51q43 -52 70 -52 q34 0 87 76l34 -52q-17 -60 -55 -115q-36 -52 -81 -52q-33 0 -73 51q-41 51 -80 51q-29 0 -86 -75z" />
<glyph unicode="&#x1eab;" horiz-adv-x="1128" d="M72 254q0 354 628 354v72q0 178 -50 226t-156 48l-240 -204q-48 29 -83 87q-35 57 -36 119q88 48 189 73q104 26 202 26q420 0 420 -353v-569h160v-67q-46 -45 -105 -71q-58 -26 -112 -26q-121 0 -178 105q-137 -105 -310 -105q-135 0 -232 72t-97 213zM233 1140l205 308 h149l208 -308l-82 -40l-201 211l-199 -211zM295 1567q34 87 69 133q34 45 86 51q44 0 91 -58q47 -57 79 -57q38 0 98 85l37 -59q-19 -68 -61 -129q-41 -59 -92 -59q-35 0 -81 58q-45 57 -90 57q-34 0 -97 -84zM330 262q0 -74 50 -112q49 -37 128 -37q112 0 192 69v322 q-183 0 -277 -67q-93 -66 -93 -175z" />
<glyph unicode="&#x1eac;" horiz-adv-x="1466" d="M-20 0v94l192 45l498 1305h147l467 -1307l189 -43v-94h-603v94l152 35l-98 277h-502l-107 -271l181 -41v-94h-516zM467 526h412l-201 559zM492 1507l188 218h117l181 -218l-69 -34l-170 137l-183 -139zM547 -262q0 49 37 82q38 34 90 35q53 0 88 -35q35 -33 35 -82 q0 -48 -37 -82q-40 -35 -86 -35q-52 0 -90 35q-37 34 -37 82z" />
<glyph unicode="&#x1ead;" horiz-adv-x="1128" d="M72 254q0 354 628 354v72q0 178 -50 226t-156 48l-240 -204q-48 29 -83 87q-35 57 -36 119q88 48 189 73q104 26 202 26q420 0 420 -353v-569h160v-67q-46 -45 -105 -71q-58 -26 -112 -26q-121 0 -178 105q-137 -105 -310 -105q-135 0 -232 72t-97 213zM295 1129l203 284 h148l206 -284l-81 -37l-199 195l-198 -195zM330 262q0 -74 50 -112q49 -37 128 -37q112 0 192 69v322q-183 0 -277 -67q-93 -66 -93 -175zM506 -262q0 49 37 82q38 34 90 35q53 0 88 -35q35 -33 35 -82q0 -48 -37 -82q-40 -35 -86 -35q-52 0 -90 35q-37 34 -37 82z" />
<glyph unicode="&#x1eae;" horiz-adv-x="1466" d="M-20 0v94l192 45l498 1305h147l467 -1307l189 -43v-94h-603v94l152 35l-98 277h-502l-107 -271l181 -41v-94h-516zM467 526h412l-201 559zM532 1810l58 5q23 -49 57 -76q35 -29 92 -29t105 23q37 21 55 82l59 -5q-4 -127 -65 -202q-63 -78 -148 -78q-81 0 -143 78 q-66 82 -70 202zM684 1835l156 262q88 -15 140 -76l-231 -228z" />
<glyph unicode="&#x1eaf;" horiz-adv-x="1128" d="M72 254q0 354 628 354v72q0 178 -51 225q-51 48 -155 49l-240 -204q-49 30 -84 86q-34 56 -35 120q89 49 189 72q109 26 202 27q420 0 420 -353v-569h160v-67q-47 -46 -105 -70q-61 -26 -112 -27q-121 0 -178 105q-137 -105 -310 -105q-135 0 -231 72q-98 71 -98 213z M293 1483h55q21 -67 66 -101q44 -32 127 -32q93 0 137 32q42 32 65 101h56q-6 -151 -82 -242q-74 -93 -170 -94q-96 0 -172 94q-76 91 -82 242zM330 262q0 -74 51 -112q49 -37 127 -37q112 0 192 69v322q-184 0 -276 -68q-94 -66 -94 -174zM437 1444l168 310q94 -16 151 -90 l-249 -270z" />
<glyph unicode="&#x1eb0;" horiz-adv-x="1466" d="M-20 0v94l192 45l498 1305h147l467 -1307l189 -43v-94h-603v94l152 35l-98 277h-502l-107 -271l181 -41v-94h-516zM467 526h412l-201 559zM489 2012q53 62 141 77l152 -256l-63 -42zM514 1810l57 5q22 -47 58 -76q35 -29 94 -29q56 0 102 23q38 21 56 82l59 -5 q-4 -125 -66 -202q-63 -78 -147 -78q-81 0 -141 78q-66 83 -72 202z" />
<glyph unicode="&#x1eb1;" horiz-adv-x="1128" d="M72 254q0 354 628 354v72q0 178 -51 225q-51 48 -155 49l-240 -204q-49 30 -84 86q-34 56 -35 120q89 49 189 72q109 26 202 27q420 0 420 -353v-569h160v-67q-47 -46 -105 -70q-61 -26 -112 -27q-121 0 -178 105q-137 -105 -310 -105q-135 0 -231 72q-98 71 -98 213z M293 1473h55q21 -67 66 -101q45 -33 127 -33q92 0 137 33q42 32 65 101h56q-6 -151 -82 -242q-74 -93 -170 -94q-96 0 -172 94q-76 91 -82 242zM313 1653q58 70 159 87l170 -291l-71 -48zM330 262q0 -74 51 -112q49 -37 127 -37q112 0 192 69v322q-184 0 -276 -68 q-94 -66 -94 -174z" />
<glyph unicode="&#x1eb2;" horiz-adv-x="1466" d="M-20 0v94l192 45l498 1305h147l467 -1307l189 -43v-94h-603v94l152 35l-98 277h-502l-107 -271l181 -41v-94h-516zM467 526h412l-201 559zM517 1730l54 3q21 -34 55 -57q33 -21 89 -21q60 0 99 17q37 17 53 61l56 -3q-5 -96 -62 -151q-61 -59 -141 -58q-74 -1 -135 58 q-62 60 -68 151zM592 1946q6 5 19.5 14.5t20.5 14.5q19 14 68 20q77 8 134 -27q43 -27 43 -88q0 -22 -11 -41q-13 -25 -30 -37q-37 -29 -41 -33l-70 -40l-20 -25h-37l-2 37l59 71q19 22 21 54q1 28 -17 43q-14 10 -53 10l-53 -18q-26 18 -31 45z" />
<glyph unicode="&#x1eb3;" horiz-adv-x="1128" d="M72 254q0 354 628 354v72q0 178 -50 226t-156 48l-240 -204q-48 29 -83 87q-35 57 -36 119q88 48 189 73q104 26 202 26q420 0 420 -353v-569h160v-67q-46 -45 -105 -71q-58 -26 -112 -26q-121 0 -178 105q-137 -105 -310 -105q-135 0 -232 72t-97 213zM252 1473h55 q21 -65 66 -100q44 -34 127 -34q92 0 136 33q43 33 66 101h56q-6 -150 -81 -243t-171 -93t-171 93q-76 94 -83 243zM330 262q0 -74 50 -112q49 -37 128 -37q112 0 192 69v322q-183 0 -277 -67q-93 -66 -93 -175zM352 1704q8 7 24.5 19t23.5 18q20 16 85 22q96 8 164 -32 q53 -33 53 -109q0 -26 -12 -49q-16 -30 -37 -47q-43 -33 -51 -39l-86 -51l-24 -31h-48l-2 47l74 88q26 30 27 64t-23 55q-16 12 -65 12l-66 -22q-33 22 -37 55z" />
<glyph unicode="&#x1eb4;" horiz-adv-x="1466" d="M-20 0v94l192 45l498 1305h147l467 -1307l189 -43v-94h-603v94l152 35l-98 277h-502l-107 -271l181 -41v-94h-516zM467 526h412l-201 559zM503 1793q31 81 62 122q30 41 76 47q39 0 81 -53t70 -53q34 0 87 78l34 -54q-18 -63 -55 -119q-36 -54 -81 -54q-32 0 -73 53 t-80 53q-29 0 -86 -78zM517 1709l54 3q19 -33 55 -57q35 -22 90 -22q53 0 98 17q35 15 53 62l56 -3q-5 -97 -62 -153q-61 -59 -141 -59q-78 0 -135 59q-62 60 -68 153z" />
<glyph unicode="&#x1eb5;" horiz-adv-x="1128" d="M72 254q0 354 628 354v72q0 178 -51 225q-51 48 -155 49l-240 -204q-49 30 -84 86q-34 56 -35 120q89 49 189 72q109 26 202 27q420 0 420 -353v-569h160v-67q-47 -46 -105 -70q-61 -26 -112 -27q-121 0 -178 105q-137 -105 -310 -105q-135 0 -231 72q-98 71 -98 213z M283 1485h55q22 -68 65 -101q44 -32 127 -32q94 0 138 32q42 32 65 101h55q-6 -152 -81 -242q-74 -93 -170 -94q-96 0 -172 94q-76 91 -82 242zM302 1584q34 87 69 133q34 44 85 50q44 0 91 -57q47 -58 79 -58q38 0 98 85l37 -59q-19 -70 -60 -129q-40 -58 -92 -58 q-37 0 -82 57q-46 58 -90 58q-33 0 -97 -85zM330 262q0 -74 51 -112q49 -37 127 -37q112 0 192 69v322q-184 0 -276 -68q-94 -66 -94 -174z" />
<glyph unicode="&#x1eb6;" horiz-adv-x="1466" d="M-20 0v94l192 45l498 1305h147l467 -1307l189 -43v-94h-603v94l152 35l-98 277h-502l-107 -271l181 -41v-94h-516zM467 526h412l-201 559zM514 1810l57 5q22 -47 58 -76q35 -29 93 -29q57 0 103 23q38 21 56 82l59 -5q-4 -125 -66 -202q-63 -78 -147 -78q-81 0 -141 78 q-66 83 -72 202zM547 -262q0 48 38 83q37 34 89 34q54 0 88 -34q35 -35 35 -83t-37 -82q-40 -35 -86 -35q-52 0 -90 35q-37 34 -37 82z" />
<glyph unicode="&#x1eb7;" horiz-adv-x="1128" d="M72 254q0 354 628 354v72q0 178 -50 226t-156 48l-240 -204q-48 29 -83 87q-35 57 -36 119q88 48 189 73q104 26 202 26q420 0 420 -353v-569h160v-67q-46 -45 -105 -71q-58 -26 -112 -26q-121 0 -178 105q-137 -105 -310 -105q-135 0 -232 72t-97 213zM293 1497h55 q20 -64 66 -99q44 -34 127 -34q93 0 136 33q44 33 66 100h56q-6 -150 -81 -243t-171 -93t-171 93q-76 94 -83 243zM330 262q0 -74 50 -112q49 -37 128 -37q112 0 192 69v322q-183 0 -277 -67q-93 -66 -93 -175zM485 -262q0 48 38 83q37 34 89 34q54 0 88 -34q35 -35 35 -83 t-37 -82q-40 -35 -86 -35q-52 0 -90 35q-37 34 -37 82z" />
<glyph unicode="&#x1eb8;" horiz-adv-x="1323" d="M84 0v94l190 45v1155l-190 45v95h1079v-420h-100l-88 282l-447 17v-527l447 39v-182l-447 37v-559l488 16l104 305h97l-17 -442h-1116zM547 -262q0 48 38 83q37 34 89 34q54 0 88 -34q35 -35 35 -83t-37 -82q-40 -35 -86 -35q-52 0 -90 35q-37 34 -37 82z" />
<glyph unicode="&#x1eb9;" horiz-adv-x="1095" d="M86 524q0 225 129 378t356 153q118 0 208 -44q89 -44 142 -122q52 -77 76 -174q25 -100 25 -209h-692q15 -170 112 -286q99 -118 269 -118q103 0 235 48l35 -97q-191 -84 -363 -84q-248 0 -390 162q-142 161 -142 393zM330 606l438 33q-6 123 -57 213t-146 90 q-103 0 -167 -96q-63 -94 -68 -240zM496 -270q0 50 36 83t91 33t88 -33q34 -34 34 -83t-36 -82q-40 -35 -86 -35q-53 0 -91 35q-36 33 -36 82z" />
<glyph unicode="&#x1eba;" horiz-adv-x="1310" d="M90 0v94l189 45v1155l-189 45v95h1067v-420h-96l-88 282l-443 17v-527l443 39v-182l-443 37v-559l482 16l104 305h96l-16 -442h-1106zM555 1853q24 19 49 37q23 17 86 23q95 8 164 -33q53 -33 53 -108q0 -28 -12 -50q-15 -29 -39 -47q-41 -31 -49 -39l-86 -51l-27 -31 h-45l-4 45l76 91q23 28 25 63q1 34 -23 55q-18 13 -64 13l-67 -23q-33 22 -37 55z" />
<glyph unicode="&#x1ebb;" horiz-adv-x="1095" d="M86 524q0 225 129 378t356 153q118 0 208 -44q89 -44 142 -122q52 -77 76 -174q25 -100 25 -209h-692q15 -170 112 -286q99 -118 269 -118q103 0 235 48l35 -97q-191 -84 -363 -84q-248 0 -390 162q-142 161 -142 393zM330 606l438 33q-6 123 -57 213t-146 90 q-103 0 -167 -96q-63 -94 -68 -240zM555 1493q24 19 49 37q22 16 86 22q96 8 164 -32q53 -33 53 -109q0 -27 -12 -49q-15 -29 -39 -47q-41 -31 -49 -39l-86 -51l-27 -31h-45l-4 45l76 90q23 28 25 64q1 34 -23 55q-17 12 -64 12l-67 -22q-33 22 -37 55z" />
<glyph unicode="&#x1ebc;" horiz-adv-x="1310" d="M90 0v94l189 45v1155l-189 45v95h1067v-420h-96l-88 282l-443 17v-527l443 39v-182l-443 37v-559l482 16l104 305h96l-16 -442h-1106zM453 1686q34 87 69 133q35 45 85 51q45 0 92 -58q47 -57 79 -57q39 0 98 84l37 -58q-19 -68 -61 -129q-41 -59 -92 -59q-35 0 -81 58 q-45 57 -90 57q-33 0 -97 -85z" />
<glyph unicode="&#x1ebd;" horiz-adv-x="1095" d="M86 524q0 226 129 377q130 153 356 154q119 0 207 -45q90 -44 142 -121q49 -75 77 -174q25 -100 25 -209h-692q15 -171 112 -287q99 -119 269 -117q103 0 235 48l35 -97q-191 -84 -363 -84q-247 0 -391 162q-141 162 -141 393zM330 606l438 33q-6 123 -57 213t-146 90 q-103 0 -166 -96q-64 -94 -69 -240zM353 1307q34 87 69 133q35 45 85 51q44 0 91 -58q46 -57 79 -57q38 0 98 85l38 -59q-19 -68 -61 -129q-41 -59 -92 -59q-36 0 -82 58q-45 57 -90 57q-34 0 -97 -84z" />
<glyph unicode="&#x1ebe;" horiz-adv-x="1310" d="M90 0v94l189 45v1155l-189 45v95h1067v-420h-96l-88 282l-443 17v-527l443 39v-182l-443 37v-559l482 16l104 305h96l-16 -442h-1106zM354 1570l233 243h146l225 -243l-87 -38l-211 153l-227 -154zM795 1803l142 251q81 -14 128 -73l-211 -218z" />
<glyph unicode="&#x1ebf;" horiz-adv-x="1095" d="M86 524q0 225 129 378t356 153q118 0 208 -44q89 -44 142 -122q52 -77 76 -174q25 -100 25 -209h-692q15 -170 112 -286q99 -118 269 -118q103 0 235 48l35 -97q-191 -84 -363 -84q-248 0 -390 162q-142 161 -142 393zM250 1190l235 379h172l240 -379l-94 -49l-232 260 l-229 -260zM330 606l438 33q-6 123 -57 213t-146 90q-103 0 -167 -96q-63 -94 -68 -240zM697 1579l169 311q92 -16 150 -91l-249 -269z" />
<glyph unicode="&#x1ec0;" horiz-adv-x="1310" d="M90 27v93l189 44v1144l-189 45v93h1067v-416h-96l-88 280l-443 16v-521l443 39v-181l-443 37v-554l482 16l104 303h96l-16 -438h-1106zM244 1932q53 60 140 74l150 -250l-63 -41zM408 1564l219 234h136l211 -234l-81 -37l-198 148l-212 -150z" />
<glyph unicode="&#x1ec1;" horiz-adv-x="1095" d="M65 1727q57 69 159 86l170 -290l-71 -48zM86 524q0 225 129 378t356 153q118 0 208 -44q89 -44 142 -122q52 -77 76 -174q25 -100 25 -209h-692q15 -170 112 -286q99 -118 269 -118q103 0 235 48l35 -97q-191 -84 -363 -84q-248 0 -390 162q-142 161 -142 393zM250 1190 l235 379h172l240 -379l-94 -49l-232 260l-229 -260zM330 606l438 33q-6 123 -57 213t-146 90q-103 0 -167 -96q-63 -94 -68 -240z" />
<glyph unicode="&#x1ec2;" horiz-adv-x="1310" d="M90 27v93l189 44v1144l-189 45v93h1067v-416h-96l-88 280l-443 16v-521l443 39v-181l-443 37v-554l482 16l104 303h96l-16 -438h-1106zM408 1523l219 234h136l211 -234l-81 -37l-198 148l-212 -150zM717 1864q24 19 49 37q20 16 84 22q95 8 164 -33q54 -34 55 -108 q0 -26 -12 -49q-15 -29 -39 -47l-51 -39l-27 -13l-35 -10l-49 45l25 31q8 12 26 63q11 32 -22 56q-17 12 -64 12l-67 -23q-32 22 -37 56z" />
<glyph unicode="&#x1ec3;" horiz-adv-x="1095" d="M86 524q0 225 129 378t356 153q118 0 208 -44q89 -44 142 -122q52 -77 76 -174q25 -100 25 -209h-692q15 -170 112 -286q99 -118 269 -118q103 0 235 48l35 -97q-191 -84 -363 -84q-248 0 -390 162q-142 161 -142 393zM250 1190l235 379h172l240 -379l-94 -49l-232 260 l-229 -260zM330 606l438 33q-6 123 -57 213t-146 90q-103 0 -167 -96q-63 -94 -68 -240zM637 1827q24 19 49 37q20 16 86 22q95 8 164 -33q53 -33 53 -108q0 -27 -12 -49q-16 -30 -37 -47q-44 -33 -51 -39l-86 -51l-27 -31h-45l-4 47l76 88q25 29 26 63q2 35 -22 56 q-17 12 -66 12l-67 -22q-33 22 -37 55z" />
<glyph unicode="&#x1ec4;" horiz-adv-x="1310" d="M90 27v93l189 44v1144l-189 45v93h1067v-416h-96l-88 280l-443 16v-521l443 39v-181l-443 37v-554l482 16l104 303h96l-16 -438h-1106zM408 1500l219 235h136l211 -235l-81 -37l-198 148l-212 -149zM467 1844q34 87 69 133q34 44 86 50q44 0 91 -57q47 -58 79 -58 q38 0 98 85l37 -58q-19 -70 -61 -130q-40 -58 -92 -58q-36 0 -81 57q-46 58 -90 58q-33 0 -97 -85z" />
<glyph unicode="&#x1ec5;" horiz-adv-x="1095" d="M86 524q0 225 129 378t356 153q118 0 208 -44q89 -44 142 -122q52 -77 76 -174q25 -100 25 -209h-692q15 -170 112 -286q99 -118 269 -118q103 0 235 48l35 -97q-191 -84 -363 -84q-248 0 -390 162q-142 161 -142 393zM250 1190l235 379h172l240 -379l-94 -49l-232 260 l-229 -260zM330 606l438 33q-6 123 -57 213t-146 90q-103 0 -167 -96q-63 -94 -68 -240zM369 1704q35 90 69 134t85 50q45 0 92 -57q47 -58 79 -58q38 0 98 85l37 -59q-19 -68 -61 -129q-40 -58 -92 -58q-36 0 -81 57q-46 58 -90 58q-33 0 -97 -85z" />
<glyph unicode="&#x1ec6;" horiz-adv-x="1310" d="M90 27v93l189 44v1144l-189 45v93h1067v-416h-96l-88 280l-443 16v-521l443 39v-181l-443 37v-554l482 16l104 303h96l-16 -438h-1106zM408 1564l219 234h136l211 -234l-81 -37l-198 148l-212 -150zM508 -262q0 49 37 82q38 34 90 35q53 0 88 -35q35 -33 35 -82 q0 -48 -37 -82q-40 -35 -86 -35q-52 0 -90 35q-37 34 -37 82z" />
<glyph unicode="&#x1ec7;" horiz-adv-x="1095" d="M86 524q0 225 129 378t356 153q118 0 208 -44q89 -44 142 -122q52 -77 76 -174q25 -100 25 -209h-692q15 -170 112 -286q99 -118 269 -118q103 0 235 48l35 -97q-191 -84 -363 -84q-248 0 -390 162q-142 161 -142 393zM250 1190l235 379h172l240 -379l-94 -49l-232 260 l-229 -260zM330 606l438 33q-6 123 -57 213t-146 90q-103 0 -167 -96q-63 -94 -68 -240zM508 -262q0 49 37 82q38 34 90 35q53 0 88 -35q35 -33 35 -82q0 -48 -37 -82q-40 -35 -86 -35q-52 0 -90 35q-37 34 -37 82z" />
<glyph unicode="&#x1ec8;" horiz-adv-x="806" d="M90 0v94l191 45v1155l-191 45v95h629v-95l-189 -45v-1155l189 -45v-94h-629zM227 1825q40 31 48 38q20 17 85 23q95 8 164 -33q55 -34 56 -108q0 -25 -13 -49q-14 -25 -39 -47q-176 -162 -51 -39l-86 -51l-24 -31h-48l-2 45l74 90q26 30 27 63q2 35 -23 56q-17 12 -63 12 l-68 -22q-33 21 -37 53z" />
<glyph unicode="&#x1ec9;" horiz-adv-x="706" d="M74 0v88l174 41v729h-174v88l327 78h91v-895l174 -41v-88h-592zM168 1503q24 19 49 37q23 17 86 23q96 8 164 -31q53 -33 53 -109q0 -27 -12 -49q-14 -26 -37 -47q-175 -162 -51 -39l-86 -53l-27 -29h-45l-4 45l76 88q25 29 26 65q1 35 -22 56q-18 13 -66 13l-67 -25 q-33 22 -37 55z" />
<glyph unicode="&#x1eca;" horiz-adv-x="806" d="M90 0v94l191 45v1155l-191 45v95h629v-95l-189 -45v-1155l189 -45v-94h-629zM250 -262q0 49 37 83t90 34q54 0 88 -34q35 -35 35 -83t-37 -82q-40 -35 -86 -35q-52 0 -90 35q-37 34 -37 82z" />
<glyph unicode="&#x1ecb;" horiz-adv-x="706" d="M74 0v88l174 41v729h-174v88l327 78h91v-895l174 -41v-88h-592zM223 1335q0 64 44 108t108 44t107 -43q44 -44 44 -109q0 -63 -44 -107t-107 -44q-64 0 -108 44t-44 107zM250 -262q0 49 37 83t90 34q54 0 88 -34q35 -35 35 -83t-37 -82q-40 -35 -86 -35q-52 0 -90 35 q-37 34 -37 82z" />
<glyph unicode="&#x1ecc;" horiz-adv-x="1576" d="M104 723q0 153 41 288q40 132 125 235q84 102 214 160q129 58 307 58q166 0 292 -55q127 -55 215 -154q90 -100 134 -235q45 -137 45 -301q0 -165 -44 -303t-131 -237q-85 -97 -216 -154q-129 -56 -295 -56q-179 0 -309 60q-132 61 -214 160q-83 101 -124 239 q-40 135 -40 295zM367 717q0 -295 113 -460q114 -167 311 -167q196 0 310 167q113 165 113 460q0 277 -107 451q-108 175 -316 175q-209 0 -317 -175q-107 -174 -107 -451zM645 -262q0 48 38 83q37 34 89 34q54 0 88 -34q35 -35 35 -83t-37 -82q-40 -35 -86 -35 q-52 0 -90 35q-37 34 -37 82z" />
<glyph unicode="&#x1ecd;" d="M86 514q0 236 148 388q148 153 374 153t373 -153t147 -388q0 -238 -147 -391q-148 -154 -373 -154t-374 154q-148 152 -148 391zM344 514q0 -194 69 -313t195 -119q127 0 196 120q68 118 68 312q0 196 -68 311q-69 117 -196 117q-126 0 -195 -117t-69 -311zM508 -262 q0 49 37 83t90 34q54 0 88 -34q35 -35 35 -83t-37 -82q-40 -35 -86 -35q-52 0 -90 35q-37 34 -37 82z" />
<glyph unicode="&#x1ece;" horiz-adv-x="1576" d="M104 723q0 153 41 288q40 132 125 235q84 102 214 160q129 58 307 58q166 0 292 -55q127 -55 215 -154q90 -100 134 -235q45 -137 45 -301q0 -165 -44 -303t-131 -237q-85 -97 -216 -154q-129 -56 -295 -56q-179 0 -309 60q-132 61 -214 160q-83 101 -124 239 q-40 135 -40 295zM367 717q0 -295 113 -460q114 -167 311 -167q196 0 310 167q113 165 113 460q0 277 -107 451q-108 175 -316 175q-209 0 -317 -175q-107 -174 -107 -451zM731 1868q8 6 24.5 18.5t23.5 18.5q20 16 85 22q95 8 164 -33q54 -34 55 -108q0 -26 -12 -49 q-15 -29 -39 -47q-40 -31 -51 -37l-86 -54l-25 -30h-47l-2 47l74 88q26 30 27 63q2 35 -23 56q-17 12 -63 12l-68 -23q-32 22 -37 56z" />
<glyph unicode="&#x1ecf;" d="M86 514q0 236 148 388q148 153 374 153t373 -153t147 -388q0 -238 -147 -391q-148 -154 -373 -154t-374 154q-148 152 -148 391zM344 514q0 -194 69 -313t195 -119q127 0 196 120q68 118 68 312q0 196 -68 311q-69 117 -196 117q-126 0 -195 -117t-69 -311zM471 1528 q8 6 24.5 18.5t23.5 18.5q20 16 87 22q94 7 162 -33q54 -34 55 -108q0 -26 -12 -49q-15 -29 -39 -47q-40 -31 -51 -37l-86 -53l-25 -31h-47l-2 47l74 88q26 30 27 63q2 35 -23 56q-17 12 -64 12l-67 -22q-33 22 -37 55z" />
<glyph unicode="&#x1ed0;" horiz-adv-x="1576" d="M104 723q0 153 41 288q40 132 125 235q84 102 214 160q129 58 307 58q166 0 292 -55q127 -55 215 -154q90 -100 134 -235q45 -137 45 -301q0 -165 -44 -303t-131 -237q-85 -97 -216 -154q-129 -56 -295 -56q-179 0 -309 60q-132 61 -214 160q-83 101 -124 239 q-40 135 -40 295zM367 717q0 -295 113 -460q114 -167 311 -167q196 0 310 167q113 165 113 460q0 277 -107 451q-108 175 -316 175q-209 0 -317 -175q-107 -174 -107 -451zM432 1571l277 299h172l266 -299l-103 -47l-249 188l-269 -190zM953 1815l169 310q93 -16 150 -90 l-249 -270z" />
<glyph unicode="&#x1ed1;" d="M86 514q0 236 148 388q148 153 374 153t373 -153t147 -388q0 -238 -147 -391q-148 -154 -373 -154t-374 154q-148 152 -148 391zM285 1190l235 379h172l240 -379l-94 -49l-232 260l-229 -260zM344 514q0 -194 69 -313t195 -119q127 0 196 120q68 118 68 312 q0 196 -68 311q-69 117 -196 117q-126 0 -195 -117t-69 -311zM773 1513l168 311q94 -16 151 -90l-250 -270z" />
<glyph unicode="&#x1ed2;" horiz-adv-x="1576" d="M104 723q0 153 41 288q40 132 125 235q84 102 214 160q129 58 307 58q166 0 292 -55q127 -55 215 -154q90 -100 134 -235q45 -137 45 -301q0 -165 -44 -303t-131 -237q-85 -97 -216 -154q-129 -56 -295 -56q-179 0 -309 60q-132 61 -214 160q-83 101 -124 239 q-40 135 -40 295zM323 2034q58 70 159 87l170 -291l-71 -48zM367 717q0 -295 113 -460q114 -167 311 -167q196 0 310 167q113 165 113 460q0 277 -107 451q-108 175 -316 175q-209 0 -317 -175q-107 -174 -107 -451zM432 1571l277 299h172l266 -299l-103 -47l-249 188 l-269 -190z" />
<glyph unicode="&#x1ed3;" d="M86 514q0 236 148 388q148 153 374 153t373 -153t147 -388q0 -238 -147 -391q-148 -154 -373 -154t-374 154q-148 152 -148 391zM104 1714q58 70 159 87l170 -291l-71 -47zM285 1190l235 379h172l240 -379l-94 -49l-232 260l-229 -260zM344 514q0 -194 69 -313t195 -119 q127 0 196 120q68 118 68 312q0 196 -68 311q-69 117 -196 117q-126 0 -195 -117t-69 -311z" />
<glyph unicode="&#x1ed4;" horiz-adv-x="1576" d="M104 723q0 153 41 288q40 132 125 235q84 102 214 160q129 58 307 58q166 0 292 -55q127 -55 215 -154q90 -100 134 -235q45 -137 45 -301q0 -165 -44 -303t-131 -237q-85 -97 -216 -154q-129 -56 -295 -56q-179 0 -309 60q-132 61 -214 160q-83 101 -124 239 q-40 135 -40 295zM367 717q0 -295 113 -460q114 -167 311 -167q196 0 310 167q113 165 113 460q0 277 -107 451q-108 175 -316 175q-209 0 -317 -175q-107 -174 -107 -451zM432 1513l277 299h172l266 -299l-103 -47l-249 189l-269 -191zM836 1915q24 19 49 37q20 16 86 22 q96 8 164 -32q53 -33 53 -109q0 -27 -12 -49q-11 -23 -39 -47l-121 -62l-45 49q54 61 55 91q1 34 -22 55q-16 12 -64 12l-68 -22q-31 21 -36 55z" />
<glyph unicode="&#x1ed5;" d="M86 514q0 236 148 388q148 153 374 153t373 -153t147 -388q0 -238 -147 -391q-148 -154 -373 -154t-374 154q-148 152 -148 391zM285 1190l235 379h172l240 -379l-94 -49l-232 260l-229 -260zM344 514q0 -194 69 -313t195 -119q127 0 196 120q68 118 68 312 q0 196 -68 311q-69 117 -196 117q-126 0 -195 -117t-69 -311zM700 1792q8 6 50 37q20 16 86 22q96 8 163 -32q54 -34 54 -109q0 -24 -13 -47q-15 -28 -39 -49q-40 -31 -51 -37l-84 -53l-26 -31h-45l-4 47l75 88q25 30 25 64q1 34 -23 55q-16 12 -63 12l-68 -22 q-33 22 -37 55z" />
<glyph unicode="&#x1ed6;" horiz-adv-x="1576" d="M104 723q0 153 41 288q40 132 125 235q84 102 214 160q129 58 307 58q166 0 292 -55q127 -55 215 -154q90 -100 134 -235q45 -137 45 -301q0 -165 -44 -303t-131 -237q-85 -97 -216 -154q-129 -56 -295 -56q-179 0 -309 60q-132 61 -214 160q-83 101 -124 239 q-40 135 -40 295zM367 717q0 -295 113 -460q114 -167 311 -167q196 0 310 167q113 165 113 460q0 277 -107 451q-108 175 -316 175q-209 0 -317 -175q-107 -174 -107 -451zM432 1479l277 229h172l266 -229l-103 -36l-249 144l-269 -145zM572 1821q34 87 69 133q35 45 85 51 q44 0 91 -58q47 -57 79 -57q38 0 98 85l38 -59q-19 -68 -61 -129q-41 -59 -92 -59q-36 0 -82 58q-45 57 -90 57q-34 0 -97 -84z" />
<glyph unicode="&#x1ed7;" d="M86 514q0 236 148 388q148 153 374 153t373 -153t147 -388q0 -238 -147 -391q-148 -154 -373 -154t-374 154q-148 152 -148 391zM285 1190l235 379h172l240 -379l-94 -49l-232 260l-229 -260zM344 514q0 -194 69 -313t195 -119q127 0 196 120q68 118 68 312 q0 196 -68 311q-69 117 -196 117q-126 0 -195 -117t-69 -311zM392 1704q35 90 69 134t85 50q44 0 91 -57q47 -58 79 -58q38 0 98 85l38 -59q-19 -68 -61 -129q-40 -58 -92 -58q-37 0 -82 57q-46 58 -90 58q-33 0 -97 -85z" />
<glyph unicode="&#x1ed8;" horiz-adv-x="1576" d="M104 723q0 153 41 288q40 132 125 235q84 102 214 160q129 58 307 58q166 0 292 -55q127 -55 215 -154q90 -100 134 -235q45 -137 45 -301q0 -165 -44 -303t-131 -237q-85 -97 -216 -154q-129 -56 -295 -56q-179 0 -309 60q-132 61 -214 160q-83 101 -124 239 q-40 135 -40 295zM367 717q0 -295 113 -460q114 -167 311 -167q196 0 310 167q113 165 113 460q0 277 -107 451q-108 175 -316 175q-209 0 -317 -175q-107 -174 -107 -451zM432 1571l277 299h172l266 -299l-103 -47l-249 188l-269 -190zM668 -262q0 49 37 82q38 34 90 35 q53 0 88 -35q35 -33 35 -82q0 -48 -37 -82q-40 -35 -86 -35q-52 0 -90 35q-37 34 -37 82z" />
<glyph unicode="&#x1ed9;" d="M86 514q0 236 148 388q148 153 374 153t373 -153t147 -388q0 -238 -147 -391q-148 -154 -373 -154t-374 154q-148 152 -148 391zM285 1190l235 379h172l240 -379l-94 -49l-232 260l-229 -260zM344 514q0 -194 69 -313t195 -119q127 0 196 120q68 118 68 312 q0 196 -68 311q-69 117 -196 117q-126 0 -195 -117t-69 -311zM508 -262q0 49 37 82q38 34 90 35q53 0 88 -35q35 -33 35 -82q0 -48 -37 -82q-40 -35 -86 -35q-52 0 -90 35q-37 34 -37 82z" />
<glyph unicode="&#x1eda;" horiz-adv-x="1581" d="M92 723q0 152 41 287q40 131 127 235q84 102 215 162q131 57 309 57q169 0 297 -55q129 -55 217 -154q90 -100 134 -235q45 -137 45 -301q0 -168 -43 -303q-45 -137 -134 -238q-87 -97 -217 -153t-299 -56q-180 0 -311 60q-133 61 -215 159q-83 100 -127 240 q-41 137 -39 295zM356 717q0 -292 115 -461q114 -168 313 -166q200 0 314 166q114 168 114 461q0 276 -108 450q-108 176 -320 176q-211 0 -319 -174q-109 -176 -109 -452zM793 1634l169 311q93 -16 151 -91l-250 -269zM1325 1272q11 8 84 63l-66 131q34 48 95 60 q62 12 110 -10q62 -29 74 -78q15 -54 -27 -107q-65 -75 -184 -127q-23 -8 -55 -12z" />
<glyph unicode="&#x1edb;" d="M86 514q0 236 147 387q151 154 375 154q225 0 373 -154q147 -151 147 -387q0 -238 -147 -391q-148 -154 -373 -154q-224 0 -375 154q-147 153 -147 391zM344 514q0 -193 70 -313q69 -119 194 -119q128 0 195 121q69 121 69 311q0 194 -69 311q-67 117 -195 117 q-126 0 -194 -117q-70 -119 -70 -311zM553 1235l169 311q93 -16 151 -91l-250 -270zM1055 874l82 66l-64 129q33 47 94 59q63 12 109 -10q61 -28 76 -78q15 -55 -29 -106q-64 -75 -182 -127q-22 -7 -56 -12z" />
<glyph unicode="&#x1edc;" horiz-adv-x="1581" d="M92 723q0 152 41 287q40 131 127 235q84 102 215 162q131 57 309 57q169 0 297 -55q129 -55 217 -154q90 -100 134 -235q45 -137 45 -301q0 -168 -43 -303q-45 -137 -134 -238q-87 -97 -217 -153t-299 -56q-180 0 -311 60q-133 61 -215 159q-83 100 -127 240 q-41 137 -39 295zM356 717q0 -292 115 -461q114 -168 313 -166q200 0 314 166q114 168 114 461q0 276 -108 450q-108 176 -320 176q-211 0 -319 -174q-109 -176 -109 -452zM608 1819q57 69 158 86l171 -290l-71 -48zM1325 1272q11 8 84 63l-66 131q34 48 95 60 q62 12 110 -10q62 -29 74 -78q15 -54 -27 -107q-65 -75 -184 -127q-23 -8 -55 -12z" />
<glyph unicode="&#x1edd;" d="M86 514q0 236 147 387q151 154 375 154q225 0 373 -154q147 -151 147 -387q0 -238 -147 -391q-148 -154 -373 -154q-224 0 -375 154q-147 153 -147 391zM344 514q0 -193 70 -313q69 -119 194 -119q128 0 195 121q69 121 69 311q0 194 -69 311q-67 117 -195 117 q-126 0 -194 -117q-70 -119 -70 -311zM368 1458q58 70 159 87l170 -291l-70 -47zM1055 874l82 66l-64 129q33 47 94 59q63 12 109 -10q61 -28 76 -78q15 -55 -29 -106q-64 -75 -182 -127q-22 -7 -56 -12z" />
<glyph unicode="&#x1ede;" horiz-adv-x="1581" d="M92 723q0 153 41 288q40 133 126 235q85 101 216 160q129 58 309 58q170 0 296 -55q130 -57 217 -154q91 -102 135 -235q45 -137 45 -301q0 -165 -44 -303q-44 -137 -133 -237q-88 -99 -217 -154q-130 -56 -299 -56q-180 0 -311 60q-133 61 -216 160q-84 100 -125 239 q-40 135 -40 295zM356 717q0 -292 115 -460q114 -167 313 -167q200 0 314 167t114 460q0 276 -108 451t-320 175q-211 0 -319 -175q-109 -177 -109 -451zM801 1882q8 6 24.5 18.5t23.5 18.5q22 17 87 23q94 8 162 -33q54 -34 55 -109q0 -26 -12 -49q-15 -29 -39 -47 q-40 -31 -51 -37l-86 -53l-25 -31h-47l-2 47l74 88q25 29 26 65q2 36 -22 54q-17 12 -64 12l-67 -22q-33 22 -37 55zM1325 1272q11 8 84 63l-66 131q34 48 95 60q62 12 110 -10q62 -29 74 -78q15 -54 -27 -107q-65 -75 -184 -127q-23 -8 -55 -12z" />
<glyph unicode="&#x1edf;" d="M86 514q0 236 148 388q148 153 374 153t373 -153t147 -388q0 -238 -147 -391q-148 -154 -373 -154t-374 154q-148 152 -148 391zM344 514q0 -194 69 -313t195 -119q127 0 196 120q68 118 68 312q0 196 -68 311q-69 117 -196 117q-126 0 -195 -117t-69 -311zM541 1522 q8 6 24.5 18.5t23.5 18.5q20 16 87 22q96 8 164 -31q53 -33 53 -108q0 -26 -12 -49q-15 -29 -39 -47q-44 -33 -51 -39l-84 -54l-27 -28h-47l-2 45l76 88q23 28 25 64q1 36 -23 57q-17 12 -64 12l-67 -25q-32 22 -37 56zM1055 874l82 66l-64 129q33 47 94 59q63 12 109 -10 q61 -28 76 -78q15 -55 -29 -106q-64 -75 -182 -127q-22 -7 -56 -12z" />
<glyph unicode="&#x1ee0;" horiz-adv-x="1581" d="M92 723q0 152 41 287q40 131 127 235q84 102 215 162q131 57 309 57q169 0 297 -55q129 -55 217 -154q90 -100 134 -235q45 -137 45 -301q0 -168 -43 -303q-45 -137 -134 -238q-87 -97 -217 -153t-299 -56q-180 0 -311 60q-133 61 -215 159q-83 100 -127 240 q-41 137 -39 295zM356 717q0 -292 115 -461q114 -168 313 -166q200 0 314 166q114 168 114 461q0 276 -108 450q-108 176 -320 176q-211 0 -319 -174q-109 -176 -109 -452zM588 1682q34 87 69 133q35 45 85 51q45 0 92 -58q46 -57 79 -57q39 0 98 84l37 -58 q-19 -68 -61 -129q-41 -59 -92 -59q-35 0 -81 58q-45 57 -90 57q-33 0 -97 -85zM1325 1272q11 8 84 63l-66 131q34 48 95 60q62 12 110 -10q62 -29 74 -78q15 -54 -27 -107q-65 -75 -184 -127q-23 -8 -55 -12z" />
<glyph unicode="&#x1ee1;" d="M86 514q0 236 147 387q151 154 375 154q225 0 373 -154q147 -151 147 -387q0 -238 -147 -391q-148 -154 -373 -154q-224 0 -375 154q-147 153 -147 391zM344 514q0 -193 70 -313q69 -119 194 -119q128 0 195 121q69 121 69 311q0 194 -69 311q-67 117 -195 117 q-126 0 -194 -117q-70 -119 -70 -311zM429 1319q35 90 69 134t85 50q45 0 91 -57q47 -58 79 -58q38 0 98 85l37 -59q-19 -68 -61 -129q-40 -58 -91 -58q-37 0 -82 57q-46 58 -90 58q-33 0 -97 -85zM1055 874l82 66l-64 129q33 47 94 59q63 12 109 -10q61 -28 76 -78 q15 -55 -29 -106q-64 -75 -182 -127q-22 -7 -56 -12z" />
<glyph unicode="&#x1ee2;" horiz-adv-x="1581" d="M92 723q0 153 41 288q40 133 126 235q85 101 216 160q129 58 309 58q170 0 296 -55q130 -57 217 -154q91 -102 135 -235q45 -137 45 -301q0 -165 -44 -303q-44 -137 -133 -237q-88 -99 -217 -154q-130 -56 -299 -56q-180 0 -311 60q-133 61 -216 160q-84 100 -125 239 q-40 135 -40 295zM356 717q0 -292 115 -460q114 -167 313 -167q200 0 314 167t114 460q0 276 -108 451t-320 175q-211 0 -319 -175q-109 -177 -109 -451zM668 -262q0 49 37 83t90 34q54 0 88 -34q35 -35 35 -83t-37 -82q-40 -35 -86 -35q-52 0 -90 35q-37 34 -37 82z M1325 1272q11 8 84 63l-66 131q34 48 95 60q62 12 110 -10q62 -29 74 -78q15 -54 -27 -107q-65 -75 -184 -127q-23 -8 -55 -12z" />
<glyph unicode="&#x1ee3;" d="M86 514q0 234 149 388q149 153 373 153q226 0 373 -153t147 -388q0 -238 -147 -391q-148 -154 -373 -154q-224 0 -373 154t-149 391zM344 514q0 -194 69 -313t195 -119q127 0 196 120q68 118 68 312q0 196 -68 311q-69 117 -196 117q-126 0 -195 -117t-69 -311zM508 -262 q0 49 37 83t90 34q54 0 88 -34q35 -35 35 -83t-37 -82q-40 -35 -86 -35q-52 0 -90 35q-37 34 -37 82zM1055 874l82 66l-64 129q33 47 94 59q63 12 109 -10q61 -28 76 -78q15 -55 -29 -106q-64 -75 -182 -127q-22 -7 -56 -12z" />
<glyph unicode="&#x1ee4;" horiz-adv-x="1615" d="M45 1339v95h629v-95l-189 -45v-757q0 -206 102 -308t273 -102t275 103t104 307v757l-190 45v95h524v-95l-189 -45v-757q0 -135 -42 -242q-43 -108 -117 -178q-77 -73 -182 -110q-106 -38 -230 -38q-128 0 -233 37q-107 38 -184 110q-76 71 -120 178q-43 104 -43 243v757z M725 -262q0 48 38 83q37 34 89 34q54 0 88 -34q35 -35 35 -83t-37 -82q-40 -35 -86 -35q-52 0 -90 35q-37 34 -37 82z" />
<glyph unicode="&#x1ee5;" horiz-adv-x="1323" d="M27 936v88h417v-707q0 -204 177 -204q140 0 262 104v678l-133 41v88h376v-891h160v-67q-49 -43 -109 -70t-120 -27q-47 0 -83 18q-37 18 -54 44q-23 35 -27 44q-9 22 -10 29q-162 -135 -348 -135q-164 0 -249 88t-85 234v604zM606 -262q0 49 37 83t90 34q54 0 88 -34 q35 -35 35 -83t-37 -82q-40 -35 -86 -35q-52 0 -90 35q-37 34 -37 82z" />
<glyph unicode="&#x1ee6;" horiz-adv-x="1615" d="M45 1339v95h629v-95l-189 -45v-757q0 -206 102 -308t273 -102t275 103t104 307v757l-190 45v95h524v-95l-189 -45v-757q0 -135 -42 -242q-43 -108 -117 -178q-77 -73 -182 -110q-106 -38 -230 -38q-128 0 -233 37q-107 38 -184 110q-76 71 -120 178q-43 104 -43 243v757z M719 1853q8 7 24.5 19t23.5 18q22 17 87 23q96 8 164 -31q53 -33 53 -108q0 -28 -12 -50q-15 -28 -39 -49q-40 -31 -51 -37l-84 -53l-27 -31h-45l-4 48l76 88q23 28 25 64q1 36 -23 54q-18 13 -64 13l-67 -23q-33 22 -37 55z" />
<glyph unicode="&#x1ee7;" horiz-adv-x="1323" d="M27 936v88h417v-707q0 -204 177 -204q140 0 262 104v678l-133 41v88h376v-891h160v-67q-49 -43 -109 -70t-120 -27q-47 0 -83 18q-37 18 -54 44q-23 35 -27 44q-9 22 -10 29q-162 -135 -348 -135q-164 0 -249 88t-85 234v604zM500 1534q8 7 24.5 19t23.5 18q20 16 85 22 q96 8 164 -32q53 -33 53 -109q0 -26 -12 -49q-16 -30 -37 -47q-40 -31 -51 -37l-86 -53l-25 -31h-47l-2 47l74 88q25 29 26 65q2 36 -22 54q-16 12 -66 12l-67 -22q-31 23 -35 55z" />
<glyph unicode="&#x1ee8;" horiz-adv-x="1615" d="M45 1339v95h629v-95l-189 -45v-757q0 -205 103 -308q100 -102 272 -102q170 0 275 102q104 104 104 308v757l-190 45v95h383v-95l-48 -45v-757q0 -137 -43 -242q-44 -107 -116 -178q-76 -71 -183 -109q-105 -39 -229 -39q-127 0 -231 37q-107 38 -185 111 q-78 72 -121 178q-43 105 -43 242v757zM801 1589l169 311q93 -16 151 -91l-250 -269zM1417 1294q3 2 13 10l30 24t41 32l-63 129q33 46 94 61q62 12 108 -12q61 -28 76 -78q15 -56 -28 -106q-63 -74 -183 -127q-28 -9 -55 -13z" />
<glyph unicode="&#x1ee9;" horiz-adv-x="1323" d="M27 936v88h417v-707q0 -204 177 -204q140 0 262 104v678l-133 41v88h376v-891h160v-67q-49 -43 -110 -70q-60 -27 -119 -27q-44 0 -84 19q-36 17 -53 43q-22 33 -27 45q-9 20 -10 28q-162 -135 -348 -135q-165 0 -250 88q-85 89 -84 234v604zM621 1210l169 311 q94 -16 151 -90l-250 -270zM1139 874l82 66l-64 129q33 47 94 59q63 12 109 -10q61 -28 76 -78q15 -54 -27 -106q-65 -75 -184 -127q-22 -7 -56 -12z" />
<glyph unicode="&#x1eea;" horiz-adv-x="1615" d="M45 1339v95h629v-95l-189 -45v-757q0 -205 103 -308q100 -102 272 -102q170 0 275 102q104 104 104 308v757l-190 45v95h383v-95l-48 -45v-757q0 -137 -43 -242q-44 -107 -116 -178q-76 -71 -183 -109q-105 -39 -229 -39q-127 0 -231 37q-107 38 -185 111 q-78 72 -121 178q-43 105 -43 242v757zM624 1782q58 70 159 87l171 -291l-71 -48zM1417 1294q3 2 13 10l30 24t41 32l-63 129q33 46 94 61q62 12 108 -12q61 -28 76 -78q15 -56 -28 -106q-63 -74 -183 -127q-28 -9 -55 -13z" />
<glyph unicode="&#x1eeb;" horiz-adv-x="1323" d="M27 936v88h417v-707q0 -204 177 -204q140 0 262 104v678l-133 41v88h376v-891h160v-67q-49 -43 -110 -70q-60 -27 -119 -27q-44 0 -84 19q-36 17 -53 43q-22 33 -27 45q-9 20 -10 28q-162 -135 -348 -135q-165 0 -250 88q-85 89 -84 234v604zM405 1422q57 69 159 86 l170 -291l-71 -47zM1139 874l82 66l-64 129q33 47 94 59q63 12 109 -10q61 -28 76 -78q15 -54 -27 -106q-65 -75 -184 -127q-22 -7 -56 -12z" />
<glyph unicode="&#x1eec;" horiz-adv-x="1615" d="M45 1339v95h629v-95l-189 -45v-757q0 -206 102 -308t273 -102t275 103t104 307v757l-190 45v95h383v-95l-48 -45v-757q0 -135 -42 -242q-43 -108 -117 -178q-77 -73 -182 -110q-106 -38 -230 -38q-128 0 -233 37q-107 38 -184 110q-76 71 -120 178q-43 104 -43 243v757z M723 1817q9 7 25 19t23 17q22 17 87 23q95 8 164 -33q53 -33 53 -108q0 -27 -12 -49q-16 -31 -39 -48q-44 -33 -51 -39l-84 -51l-27 -30h-47l-2 45l76 90q23 28 25 63t-23 56q-17 12 -64 12l-67 -23q-32 22 -37 56zM1417 1294q3 2 13 10l30 24t41 32l-63 129q33 46 94 61 q62 12 108 -12q61 -28 76 -78q15 -56 -28 -106q-63 -74 -183 -127q-28 -9 -55 -13z" />
<glyph unicode="&#x1eed;" horiz-adv-x="1323" d="M27 936v88h417v-707q0 -204 177 -204q140 0 262 104v678l-133 41v88h376v-891h160v-67q-49 -43 -109 -70t-120 -27q-47 0 -83 18q-37 18 -54 44q-23 35 -27 44q-9 22 -10 29q-162 -135 -348 -135q-164 0 -249 88t-85 234v604zM502 1516q2 1 49 36q23 17 86 23 q96 8 164 -31q53 -33 53 -108q0 -28 -12 -50q-15 -28 -37 -49q-40 -31 -51 -37l-86 -53l-27 -30h-45l-2 47l74 88q25 29 26 64q2 36 -22 54q-18 13 -66 13l-67 -23q-32 22 -37 56zM1139 874l82 66l-64 129q33 47 94 59q63 12 109 -10q61 -28 76 -78q15 -54 -27 -106 q-65 -75 -184 -127q-22 -7 -56 -12z" />
<glyph unicode="&#x1eee;" horiz-adv-x="1615" d="M45 1339v95h629v-95l-189 -45v-757q0 -205 103 -308q100 -102 272 -102q170 0 275 102q104 104 104 308v757l-190 45v95h383v-95l-48 -45v-757q0 -137 -43 -242q-44 -107 -116 -178q-76 -71 -183 -109q-105 -39 -229 -39q-127 0 -231 37q-107 38 -185 111 q-78 72 -121 178q-43 105 -43 242v757zM627 1659q35 90 69 134t85 50q45 0 92 -57q47 -58 79 -58q38 0 98 85l37 -59q-19 -68 -61 -129q-40 -58 -92 -58q-36 0 -81 57q-46 58 -90 58q-33 0 -97 -85zM1417 1294q3 2 13 10l30 24t41 32l-63 129q33 46 94 61q62 12 108 -12 q61 -28 76 -78q15 -56 -28 -106q-63 -74 -183 -127q-28 -9 -55 -13z" />
<glyph unicode="&#x1eef;" horiz-adv-x="1323" d="M27 936v88h417v-707q0 -204 177 -204q140 0 262 104v678l-133 41v88h376v-891h160v-67q-49 -43 -110 -70q-60 -27 -119 -27q-44 0 -84 19q-36 17 -53 43q-22 33 -27 45q-9 20 -10 28q-162 -135 -348 -135q-165 0 -250 88q-85 89 -84 234v604zM429 1319q35 90 69 134 t85 50q45 0 91 -57q47 -58 79 -58q38 0 98 85l37 -59q-19 -68 -61 -129q-40 -58 -91 -58q-37 0 -82 57q-46 58 -90 58q-33 0 -97 -85zM1139 874l82 66l-64 129q33 47 94 59q63 12 109 -10q61 -28 76 -78q15 -54 -27 -106q-65 -75 -184 -127q-22 -7 -56 -12z" />
<glyph unicode="&#x1ef0;" horiz-adv-x="1615" d="M45 1339v95h629v-95l-189 -45v-757q0 -206 102 -308t273 -102t275 103t104 307v757l-190 45v95h383v-95l-48 -45v-757q0 -135 -42 -242q-43 -108 -117 -178q-77 -73 -182 -110q-106 -38 -230 -38q-128 0 -233 37q-107 38 -184 110q-76 71 -120 178q-43 104 -43 243v757z M739 -262q0 48 38 83q37 34 89 34q54 0 88 -34q35 -35 35 -83t-37 -82q-40 -35 -86 -35q-52 0 -90 35q-37 34 -37 82zM1417 1294q3 2 13 10l30 24t41 32l-63 129q33 46 94 61q62 12 108 -12q61 -28 76 -78q15 -56 -28 -106q-63 -74 -183 -127q-28 -9 -55 -13z" />
<glyph unicode="&#x1ef1;" horiz-adv-x="1323" d="M27 936v88h417v-707q0 -204 177 -204q140 0 262 104v678l-133 41v88h376v-891h160v-67q-49 -43 -109 -70t-120 -27q-47 0 -83 18q-37 18 -54 44q-23 35 -27 44q-9 22 -10 29q-162 -135 -348 -135q-164 0 -249 88t-85 234v604zM559 -262q0 48 38 83q37 34 89 34 q54 0 88 -34q35 -35 35 -83t-37 -82q-40 -35 -86 -35q-52 0 -90 35q-37 34 -37 82zM1139 874l82 66l-64 129q33 47 94 59q63 12 109 -10q61 -28 76 -78q15 -54 -27 -106q-65 -75 -184 -127q-22 -7 -56 -12z" />
<glyph unicode="&#x1ef2;" horiz-adv-x="1421" d="M-18 1339v95h589v-95l-133 -26l338 -498l303 483l-151 41v95h502v-95l-189 -45l-397 -632v-523l188 -45v-94h-629v94l189 45v516l-445 643zM515 1745q58 70 159 87l171 -291l-71 -47z" />
<glyph unicode="&#x1ef3;" horiz-adv-x="1228" d="M2 936v88h559v-88l-158 -31l291 -649l246 639l-164 41v88h453v-88l-162 -43l-580 -1505q-94 0 -137 26t-71 66l292 465l-430 952zM436 1465q57 69 158 86l171 -291l-71 -47z" />
<glyph unicode="&#x1ef4;" horiz-adv-x="1421" d="M-18 1339v95h589v-95l-133 -26l338 -498l303 483l-151 41v95h502v-95l-189 -45l-397 -632v-523l188 -45v-94h-629v94l189 45v516l-445 643zM610 -262q0 49 37 83t90 34q54 0 88 -34q35 -35 35 -83t-37 -82q-40 -35 -86 -35q-52 0 -90 35q-37 34 -37 82z" />
<glyph unicode="&#x1ef5;" horiz-adv-x="1228" d="M2 936v88h559v-88l-158 -31l291 -649l246 639l-164 41v88h453v-88l-162 -43l-580 -1505q-93 0 -138 26q-46 27 -70 66l292 465l-430 952zM729 -262q0 48 38 83q37 34 89 34q54 0 88 -34q35 -35 35 -83t-37 -82q-40 -35 -86 -35q-52 0 -90 35q-37 34 -37 82z" />
<glyph unicode="&#x1ef6;" horiz-adv-x="1421" d="M-18 1339v95h589v-95l-133 -26l338 -498l303 483l-151 41v95h502v-95l-189 -45l-397 -632v-523l188 -45v-94h-629v94l189 45v516l-445 643zM623 1835q40 31 48 38q19 16 87 21q97 8 164 -30q53 -33 53 -109q0 -27 -12 -49q-15 -29 -39 -47q-46 -35 -50 -39l-86 -51 l-26 -31h-45l-4 45l75 88q25 29 26 65q1 35 -23 56q-17 12 -64 12l-68 -24q-31 21 -36 55z" />
<glyph unicode="&#x1ef7;" horiz-adv-x="1228" d="M2 936v88h559v-88l-158 -31l291 -649l246 639l-164 41v88h453v-88l-162 -43l-580 -1505q-93 0 -138 26q-46 27 -70 66l292 465l-430 952zM502 1516q2 1 49 36q23 17 86 23q96 8 164 -31q53 -33 53 -108q0 -28 -12 -50q-15 -28 -37 -49q-40 -31 -51 -37l-86 -53l-27 -30 h-45l-2 47l74 88q25 29 26 64q2 36 -22 54q-18 13 -66 13l-67 -23q-32 22 -37 56z" />
<glyph unicode="&#x1ef8;" horiz-adv-x="1421" d="M-18 1339v95h589v-95l-133 -26l338 -498l303 483l-151 41v95h502v-95l-189 -45l-397 -632v-523l188 -45v-94h-629v94l189 45v516l-445 643zM508 1680q34 87 69 133q34 45 86 51q44 0 91 -58t79 -58q38 0 98 85l37 -58q-19 -68 -61 -129q-41 -59 -92 -59q-35 0 -81 58 q-45 57 -90 57q-33 0 -97 -85z" />
<glyph unicode="&#x1ef9;" horiz-adv-x="1228" d="M2 936v88h559v-88l-158 -31l291 -649l246 639l-164 41v88h453v-88l-162 -43l-580 -1505q-94 0 -137 26t-71 66l292 465l-430 952zM429 1319q35 90 69 134t85 50q45 0 91 -57q47 -58 79 -58q38 0 98 85l37 -59q-19 -68 -61 -129q-40 -58 -91 -58q-37 0 -82 57 q-46 58 -90 58q-33 0 -97 -85z" />
<glyph unicode="&#x2000;" horiz-adv-x="1062" />
<glyph unicode="&#x2001;" horiz-adv-x="2125" />
<glyph unicode="&#x2002;" horiz-adv-x="1062" />
<glyph unicode="&#x2003;" horiz-adv-x="2125" />
<glyph unicode="&#x2004;" horiz-adv-x="708" />
<glyph unicode="&#x2005;" horiz-adv-x="531" />
<glyph unicode="&#x2006;" horiz-adv-x="354" />
<glyph unicode="&#x2007;" horiz-adv-x="354" />
<glyph unicode="&#x2008;" horiz-adv-x="265" />
<glyph unicode="&#x2009;" horiz-adv-x="425" />
<glyph unicode="&#x200a;" horiz-adv-x="118" />
<glyph unicode="&#x2010;" horiz-adv-x="700" d="M127 481v158h448v-158h-448z" />
<glyph unicode="&#x2011;" horiz-adv-x="700" d="M127 481v158h448v-158h-448z" />
<glyph unicode="&#x2012;" horiz-adv-x="700" d="M127 481v158h448v-158h-448z" />
<glyph unicode="&#x2013;" horiz-adv-x="1341" d="M147 494v131h1045v-131h-1045z" />
<glyph unicode="&#x2014;" horiz-adv-x="2365" d="M147 494v131h2069v-131h-2069z" />
<glyph unicode="&#x2018;" horiz-adv-x="485" d="M84 1079q0 102 92 238q91 135 184 203l76 -68q-121 -127 -184 -283l135 -104q0 -69 -46 -112q-47 -44 -103 -44q-73 0 -113 43q-41 44 -41 127z" />
<glyph unicode="&#x2019;" horiz-adv-x="489" d="M78 934q121 127 184 283l-135 104q0 69 46 112q47 44 103 44q73 0 113 -43q41 -44 41 -127q0 -102 -92 -238q-91 -135 -184 -203z" />
<glyph unicode="&#x201a;" horiz-adv-x="485" d="M39 -287q121 127 184 283l-135 104q0 69 46 112q47 44 104 44q72 0 112 -43q41 -44 41 -127q0 -102 -92 -238q-90 -133 -184 -202z" />
<glyph unicode="&#x201c;" horiz-adv-x="851" d="M84 1083q0 102 92 238q91 135 184 203l76 -68q-122 -128 -184 -282l135 -105q0 -69 -46 -112q-47 -44 -103 -44q-73 0 -113 43q-41 44 -41 127zM453 1083q0 102 92 238q91 135 184 203l76 -68q-122 -128 -184 -282l135 -105q0 -69 -46 -112q-47 -44 -104 -44 q-72 0 -112 43q-41 44 -41 127z" />
<glyph unicode="&#x201d;" horiz-adv-x="860" d="M78 934q121 127 184 283l-135 104q0 69 46 112q47 44 103 44q73 0 113 -43q41 -44 41 -127q0 -102 -92 -238q-91 -135 -184 -203zM449 934q121 127 184 283l-135 104q0 69 46 112q47 44 103 44q73 0 113 -43q41 -44 41 -127q0 -102 -92 -238q-90 -133 -185 -203z" />
<glyph unicode="&#x201e;" horiz-adv-x="856" d="M39 -287q121 127 184 283l-135 104q0 69 46 112q47 44 104 44q72 0 112 -43q41 -44 41 -127q0 -102 -92 -238q-90 -133 -184 -202zM408 -287q121 127 184 283l-135 104q0 69 46 112q47 44 103 44q73 0 113 -43q41 -44 41 -127q0 -102 -92 -238q-89 -131 -185 -202z" />
<glyph unicode="&#x2022;" horiz-adv-x="903" d="M145 731q0 134 96 221q95 86 212 86q118 0 212 -88q95 -89 95 -219t-95 -219q-94 -88 -212 -88q-112 0 -210 86t-98 221z" />
<glyph unicode="&#x202f;" horiz-adv-x="425" />
<glyph unicode="&#x2039;" horiz-adv-x="620" d="M94 520v66l334 377l92 -41l-186 -369l186 -369l-92 -41z" />
<glyph unicode="&#x203a;" horiz-adv-x="620" d="M102 184l187 369l-187 369l93 41l333 -377v-66l-333 -377z" />
<glyph unicode="&#x2044;" horiz-adv-x="811" d="M-29 0l731 1464h144l-729 -1464h-146z" />
<glyph unicode="&#x205f;" horiz-adv-x="531" />
<glyph unicode="&#x20ac;" horiz-adv-x="1404" d="M96 492v98l121 6q-6 60 -6 121q0 37 2 65h-117v97l125 8q79 577 672 577q203 0 377 -80v-378h-92l-95 305q-83 16 -170 16q-369 0 -432 -428l549 33l-51 -150h-508q-2 -28 -2 -65q0 -78 4 -107l459 29l-51 -147h-394q69 -386 392 -386q89 0 163 17l158 323h94l-53 -376 q-175 -101 -373 -101q-267 0 -427 136q-161 137 -210 387h-135z" />
<glyph unicode="&#x25fc;" horiz-adv-x="1024" d="M0 0v1024h1024v-1024h-1024z" />
</font>
</defs>
</svg>
